%TF.GenerationSoftware,KiCad,Pcbnew,(6.0.9)*%
%TF.CreationDate,2023-09-21T20:23:22+02:00*%
%TF.ProjectId,EZFocus,455a466f-6375-4732-9e6b-696361645f70,rev?*%
%TF.SameCoordinates,Original*%
%TF.FileFunction,Legend,Bot*%
%TF.FilePolarity,Positive*%
%FSLAX46Y46*%
G04 Gerber Fmt 4.6, Leading zero omitted, Abs format (unit mm)*
G04 Created by KiCad (PCBNEW (6.0.9)) date 2023-09-21 20:23:22*
%MOMM*%
%LPD*%
G01*
G04 APERTURE LIST*
%ADD10C,0.150000*%
%TA.AperFunction,Profile*%
%ADD11C,0.100000*%
%TD*%
G04 APERTURE END LIST*
D10*
X118000000Y-87000000D02*
X115000000Y-87000000D01*
X118000000Y-67000000D02*
X115000000Y-67000000D01*
X115000000Y-87000000D02*
G75*
G03*
X112000000Y-90000000I0J-3000000D01*
G01*
X112000000Y-93000000D02*
X112000000Y-90000000D01*
X92000000Y-93000000D02*
X92000000Y-90000000D01*
X118000000Y-73000000D02*
X115000000Y-73000000D01*
X115000000Y-67000000D02*
G75*
G03*
X115000000Y-73000000I0J-3000000D01*
G01*
X86000000Y-93000000D02*
X86000000Y-90000000D01*
X92000000Y-90000000D02*
G75*
G03*
X86000000Y-90000000I-3000000J0D01*
G01*
D11*
X118000000Y-90000000D02*
X118000000Y-63000000D01*
X75000000Y-93000000D02*
X115000000Y-93000000D01*
X75000000Y-60000000D02*
G75*
G03*
X72000000Y-63000000I0J-3000000D01*
G01*
X118000000Y-63000000D02*
G75*
G03*
X115000000Y-60000000I-3000000J0D01*
G01*
X72000000Y-90000000D02*
G75*
G03*
X75000000Y-93000000I3000000J0D01*
G01*
X115000000Y-60000000D02*
X75000000Y-60000000D01*
X72000000Y-63000000D02*
X72000000Y-90000000D01*
X115000000Y-93000000D02*
G75*
G03*
X118000000Y-90000000I0J3000000D01*
G01*
D10*
X86989285Y-66109285D02*
X86989285Y-65359285D01*
X86810714Y-65359285D01*
X86703571Y-65395000D01*
X86632142Y-65466428D01*
X86596428Y-65537857D01*
X86560714Y-65680714D01*
X86560714Y-65787857D01*
X86596428Y-65930714D01*
X86632142Y-66002142D01*
X86703571Y-66073571D01*
X86810714Y-66109285D01*
X86989285Y-66109285D01*
X86239285Y-66109285D02*
X86239285Y-65359285D01*
X85453571Y-66109285D02*
X85703571Y-65752142D01*
X85882142Y-66109285D02*
X85882142Y-65359285D01*
X85596428Y-65359285D01*
X85525000Y-65395000D01*
X85489285Y-65430714D01*
X85453571Y-65502142D01*
X85453571Y-65609285D01*
X85489285Y-65680714D01*
X85525000Y-65716428D01*
X85596428Y-65752142D01*
X85882142Y-65752142D01*
X81703571Y-65609285D02*
X82275000Y-65823571D01*
X81703571Y-66037857D01*
X81346428Y-65823571D02*
X80775000Y-65823571D01*
X80417857Y-65609285D02*
X79846428Y-65823571D01*
X80417857Y-66037857D01*
X78917857Y-66109285D02*
X78917857Y-65359285D01*
X78739285Y-65359285D01*
X78632142Y-65395000D01*
X78560714Y-65466428D01*
X78525000Y-65537857D01*
X78489285Y-65680714D01*
X78489285Y-65787857D01*
X78525000Y-65930714D01*
X78560714Y-66002142D01*
X78632142Y-66073571D01*
X78739285Y-66109285D01*
X78917857Y-66109285D01*
X78025000Y-65359285D02*
X77953571Y-65359285D01*
X77882142Y-65395000D01*
X77846428Y-65430714D01*
X77810714Y-65502142D01*
X77775000Y-65645000D01*
X77775000Y-65823571D01*
X77810714Y-65966428D01*
X77846428Y-66037857D01*
X77882142Y-66073571D01*
X77953571Y-66109285D01*
X78025000Y-66109285D01*
X78096428Y-66073571D01*
X78132142Y-66037857D01*
X78167857Y-65966428D01*
X78203571Y-65823571D01*
X78203571Y-65645000D01*
X78167857Y-65502142D01*
X78132142Y-65430714D01*
X78096428Y-65395000D01*
X78025000Y-65359285D01*
X87114285Y-67281071D02*
X87007142Y-67316785D01*
X86828571Y-67316785D01*
X86757142Y-67281071D01*
X86721428Y-67245357D01*
X86685714Y-67173928D01*
X86685714Y-67102500D01*
X86721428Y-67031071D01*
X86757142Y-66995357D01*
X86828571Y-66959642D01*
X86971428Y-66923928D01*
X87042857Y-66888214D01*
X87078571Y-66852500D01*
X87114285Y-66781071D01*
X87114285Y-66709642D01*
X87078571Y-66638214D01*
X87042857Y-66602500D01*
X86971428Y-66566785D01*
X86792857Y-66566785D01*
X86685714Y-66602500D01*
X86471428Y-66566785D02*
X86042857Y-66566785D01*
X86257142Y-67316785D02*
X86257142Y-66566785D01*
X85792857Y-67316785D02*
X85792857Y-66566785D01*
X85507142Y-66566785D01*
X85435714Y-66602500D01*
X85400000Y-66638214D01*
X85364285Y-66709642D01*
X85364285Y-66816785D01*
X85400000Y-66888214D01*
X85435714Y-66923928D01*
X85507142Y-66959642D01*
X85792857Y-66959642D01*
X81614285Y-66816785D02*
X82185714Y-67031071D01*
X81614285Y-67245357D01*
X81257142Y-67031071D02*
X80685714Y-67031071D01*
X80328571Y-66816785D02*
X79757142Y-67031071D01*
X80328571Y-67245357D01*
X78828571Y-67316785D02*
X78828571Y-66566785D01*
X78650000Y-66566785D01*
X78542857Y-66602500D01*
X78471428Y-66673928D01*
X78435714Y-66745357D01*
X78400000Y-66888214D01*
X78400000Y-66995357D01*
X78435714Y-67138214D01*
X78471428Y-67209642D01*
X78542857Y-67281071D01*
X78650000Y-67316785D01*
X78828571Y-67316785D01*
X77685714Y-67316785D02*
X78114285Y-67316785D01*
X77900000Y-67316785D02*
X77900000Y-66566785D01*
X77971428Y-66673928D01*
X78042857Y-66745357D01*
X78114285Y-66781071D01*
X87132142Y-68488571D02*
X87025000Y-68524285D01*
X86846428Y-68524285D01*
X86775000Y-68488571D01*
X86739285Y-68452857D01*
X86703571Y-68381428D01*
X86703571Y-68310000D01*
X86739285Y-68238571D01*
X86775000Y-68202857D01*
X86846428Y-68167142D01*
X86989285Y-68131428D01*
X87060714Y-68095714D01*
X87096428Y-68060000D01*
X87132142Y-67988571D01*
X87132142Y-67917142D01*
X87096428Y-67845714D01*
X87060714Y-67810000D01*
X86989285Y-67774285D01*
X86810714Y-67774285D01*
X86703571Y-67810000D01*
X86025000Y-68524285D02*
X86382142Y-68524285D01*
X86382142Y-67774285D01*
X85775000Y-68524285D02*
X85775000Y-67774285D01*
X85489285Y-67774285D01*
X85417857Y-67810000D01*
X85382142Y-67845714D01*
X85346428Y-67917142D01*
X85346428Y-68024285D01*
X85382142Y-68095714D01*
X85417857Y-68131428D01*
X85489285Y-68167142D01*
X85775000Y-68167142D01*
X81596428Y-68024285D02*
X82167857Y-68238571D01*
X81596428Y-68452857D01*
X81239285Y-68238571D02*
X80667857Y-68238571D01*
X80310714Y-68024285D02*
X79739285Y-68238571D01*
X80310714Y-68452857D01*
X78810714Y-68524285D02*
X78810714Y-67774285D01*
X78632142Y-67774285D01*
X78525000Y-67810000D01*
X78453571Y-67881428D01*
X78417857Y-67952857D01*
X78382142Y-68095714D01*
X78382142Y-68202857D01*
X78417857Y-68345714D01*
X78453571Y-68417142D01*
X78525000Y-68488571D01*
X78632142Y-68524285D01*
X78810714Y-68524285D01*
X78096428Y-67845714D02*
X78060714Y-67810000D01*
X77989285Y-67774285D01*
X77810714Y-67774285D01*
X77739285Y-67810000D01*
X77703571Y-67845714D01*
X77667857Y-67917142D01*
X77667857Y-67988571D01*
X77703571Y-68095714D01*
X78132142Y-68524285D01*
X77667857Y-68524285D01*
X87203571Y-69731785D02*
X87203571Y-68981785D01*
X86953571Y-69517500D01*
X86703571Y-68981785D01*
X86703571Y-69731785D01*
X86382142Y-69696071D02*
X86275000Y-69731785D01*
X86096428Y-69731785D01*
X86025000Y-69696071D01*
X85989285Y-69660357D01*
X85953571Y-69588928D01*
X85953571Y-69517500D01*
X85989285Y-69446071D01*
X86025000Y-69410357D01*
X86096428Y-69374642D01*
X86239285Y-69338928D01*
X86310714Y-69303214D01*
X86346428Y-69267500D01*
X86382142Y-69196071D01*
X86382142Y-69124642D01*
X86346428Y-69053214D01*
X86310714Y-69017500D01*
X86239285Y-68981785D01*
X86060714Y-68981785D01*
X85953571Y-69017500D01*
X85703571Y-68981785D02*
X85239285Y-68981785D01*
X85489285Y-69267500D01*
X85382142Y-69267500D01*
X85310714Y-69303214D01*
X85275000Y-69338928D01*
X85239285Y-69410357D01*
X85239285Y-69588928D01*
X85275000Y-69660357D01*
X85310714Y-69696071D01*
X85382142Y-69731785D01*
X85596428Y-69731785D01*
X85667857Y-69696071D01*
X85703571Y-69660357D01*
X81489285Y-69231785D02*
X82060714Y-69446071D01*
X81489285Y-69660357D01*
X81132142Y-69446071D02*
X80560714Y-69446071D01*
X80203571Y-69231785D02*
X79632142Y-69446071D01*
X80203571Y-69660357D01*
X78703571Y-69731785D02*
X78703571Y-68981785D01*
X78525000Y-68981785D01*
X78417857Y-69017500D01*
X78346428Y-69088928D01*
X78310714Y-69160357D01*
X78275000Y-69303214D01*
X78275000Y-69410357D01*
X78310714Y-69553214D01*
X78346428Y-69624642D01*
X78417857Y-69696071D01*
X78525000Y-69731785D01*
X78703571Y-69731785D01*
X78025000Y-68981785D02*
X77560714Y-68981785D01*
X77810714Y-69267500D01*
X77703571Y-69267500D01*
X77632142Y-69303214D01*
X77596428Y-69338928D01*
X77560714Y-69410357D01*
X77560714Y-69588928D01*
X77596428Y-69660357D01*
X77632142Y-69696071D01*
X77703571Y-69731785D01*
X77917857Y-69731785D01*
X77989285Y-69696071D01*
X78025000Y-69660357D01*
X87203571Y-70939285D02*
X87203571Y-70189285D01*
X86953571Y-70725000D01*
X86703571Y-70189285D01*
X86703571Y-70939285D01*
X86382142Y-70903571D02*
X86275000Y-70939285D01*
X86096428Y-70939285D01*
X86025000Y-70903571D01*
X85989285Y-70867857D01*
X85953571Y-70796428D01*
X85953571Y-70725000D01*
X85989285Y-70653571D01*
X86025000Y-70617857D01*
X86096428Y-70582142D01*
X86239285Y-70546428D01*
X86310714Y-70510714D01*
X86346428Y-70475000D01*
X86382142Y-70403571D01*
X86382142Y-70332142D01*
X86346428Y-70260714D01*
X86310714Y-70225000D01*
X86239285Y-70189285D01*
X86060714Y-70189285D01*
X85953571Y-70225000D01*
X85667857Y-70260714D02*
X85632142Y-70225000D01*
X85560714Y-70189285D01*
X85382142Y-70189285D01*
X85310714Y-70225000D01*
X85275000Y-70260714D01*
X85239285Y-70332142D01*
X85239285Y-70403571D01*
X85275000Y-70510714D01*
X85703571Y-70939285D01*
X85239285Y-70939285D01*
X81489285Y-70439285D02*
X82060714Y-70653571D01*
X81489285Y-70867857D01*
X81132142Y-70653571D02*
X80560714Y-70653571D01*
X80203571Y-70439285D02*
X79632142Y-70653571D01*
X80203571Y-70867857D01*
X78703571Y-70939285D02*
X78703571Y-70189285D01*
X78525000Y-70189285D01*
X78417857Y-70225000D01*
X78346428Y-70296428D01*
X78310714Y-70367857D01*
X78275000Y-70510714D01*
X78275000Y-70617857D01*
X78310714Y-70760714D01*
X78346428Y-70832142D01*
X78417857Y-70903571D01*
X78525000Y-70939285D01*
X78703571Y-70939285D01*
X77632142Y-70439285D02*
X77632142Y-70939285D01*
X77810714Y-70153571D02*
X77989285Y-70689285D01*
X77525000Y-70689285D01*
X87203571Y-72146785D02*
X87203571Y-71396785D01*
X86953571Y-71932500D01*
X86703571Y-71396785D01*
X86703571Y-72146785D01*
X86382142Y-72111071D02*
X86275000Y-72146785D01*
X86096428Y-72146785D01*
X86025000Y-72111071D01*
X85989285Y-72075357D01*
X85953571Y-72003928D01*
X85953571Y-71932500D01*
X85989285Y-71861071D01*
X86025000Y-71825357D01*
X86096428Y-71789642D01*
X86239285Y-71753928D01*
X86310714Y-71718214D01*
X86346428Y-71682500D01*
X86382142Y-71611071D01*
X86382142Y-71539642D01*
X86346428Y-71468214D01*
X86310714Y-71432500D01*
X86239285Y-71396785D01*
X86060714Y-71396785D01*
X85953571Y-71432500D01*
X85703571Y-71396785D02*
X85239285Y-71396785D01*
X85489285Y-71682500D01*
X85382142Y-71682500D01*
X85310714Y-71718214D01*
X85275000Y-71753928D01*
X85239285Y-71825357D01*
X85239285Y-72003928D01*
X85275000Y-72075357D01*
X85310714Y-72111071D01*
X85382142Y-72146785D01*
X85596428Y-72146785D01*
X85667857Y-72111071D01*
X85703571Y-72075357D01*
X81489285Y-71646785D02*
X82060714Y-71861071D01*
X81489285Y-72075357D01*
X81132142Y-71861071D02*
X80560714Y-71861071D01*
X80203571Y-71646785D02*
X79632142Y-71861071D01*
X80203571Y-72075357D01*
X78703571Y-72146785D02*
X78703571Y-71396785D01*
X78525000Y-71396785D01*
X78417857Y-71432500D01*
X78346428Y-71503928D01*
X78310714Y-71575357D01*
X78275000Y-71718214D01*
X78275000Y-71825357D01*
X78310714Y-71968214D01*
X78346428Y-72039642D01*
X78417857Y-72111071D01*
X78525000Y-72146785D01*
X78703571Y-72146785D01*
X77596428Y-71396785D02*
X77953571Y-71396785D01*
X77989285Y-71753928D01*
X77953571Y-71718214D01*
X77882142Y-71682500D01*
X77703571Y-71682500D01*
X77632142Y-71718214D01*
X77596428Y-71753928D01*
X77560714Y-71825357D01*
X77560714Y-72003928D01*
X77596428Y-72075357D01*
X77632142Y-72111071D01*
X77703571Y-72146785D01*
X77882142Y-72146785D01*
X77953571Y-72111071D01*
X77989285Y-72075357D01*
X87239285Y-72604285D02*
X86810714Y-72604285D01*
X87025000Y-73354285D02*
X87025000Y-72604285D01*
X86739285Y-73425714D02*
X86167857Y-73425714D01*
X86025000Y-73318571D02*
X85917857Y-73354285D01*
X85739285Y-73354285D01*
X85667857Y-73318571D01*
X85632142Y-73282857D01*
X85596428Y-73211428D01*
X85596428Y-73140000D01*
X85632142Y-73068571D01*
X85667857Y-73032857D01*
X85739285Y-72997142D01*
X85882142Y-72961428D01*
X85953571Y-72925714D01*
X85989285Y-72890000D01*
X86025000Y-72818571D01*
X86025000Y-72747142D01*
X85989285Y-72675714D01*
X85953571Y-72640000D01*
X85882142Y-72604285D01*
X85703571Y-72604285D01*
X85596428Y-72640000D01*
X84989285Y-73318571D02*
X85060714Y-73354285D01*
X85203571Y-73354285D01*
X85275000Y-73318571D01*
X85310714Y-73247142D01*
X85310714Y-72961428D01*
X85275000Y-72890000D01*
X85203571Y-72854285D01*
X85060714Y-72854285D01*
X84989285Y-72890000D01*
X84953571Y-72961428D01*
X84953571Y-73032857D01*
X85310714Y-73104285D01*
X84632142Y-72854285D02*
X84632142Y-73354285D01*
X84632142Y-72925714D02*
X84596428Y-72890000D01*
X84525000Y-72854285D01*
X84417857Y-72854285D01*
X84346428Y-72890000D01*
X84310714Y-72961428D01*
X84310714Y-73354285D01*
X83989285Y-73318571D02*
X83917857Y-73354285D01*
X83775000Y-73354285D01*
X83703571Y-73318571D01*
X83667857Y-73247142D01*
X83667857Y-73211428D01*
X83703571Y-73140000D01*
X83775000Y-73104285D01*
X83882142Y-73104285D01*
X83953571Y-73068571D01*
X83989285Y-72997142D01*
X83989285Y-72961428D01*
X83953571Y-72890000D01*
X83882142Y-72854285D01*
X83775000Y-72854285D01*
X83703571Y-72890000D01*
X83060714Y-73318571D02*
X83132142Y-73354285D01*
X83275000Y-73354285D01*
X83346428Y-73318571D01*
X83382142Y-73247142D01*
X83382142Y-72961428D01*
X83346428Y-72890000D01*
X83275000Y-72854285D01*
X83132142Y-72854285D01*
X83060714Y-72890000D01*
X83025000Y-72961428D01*
X83025000Y-73032857D01*
X83382142Y-73104285D01*
X81560714Y-72854285D02*
X82132142Y-73068571D01*
X81560714Y-73282857D01*
X81203571Y-73068571D02*
X80632142Y-73068571D01*
X80275000Y-72854285D02*
X79703571Y-73068571D01*
X80275000Y-73282857D01*
X78775000Y-73354285D02*
X78775000Y-72604285D01*
X78596428Y-72604285D01*
X78489285Y-72640000D01*
X78417857Y-72711428D01*
X78382142Y-72782857D01*
X78346428Y-72925714D01*
X78346428Y-73032857D01*
X78382142Y-73175714D01*
X78417857Y-73247142D01*
X78489285Y-73318571D01*
X78596428Y-73354285D01*
X78775000Y-73354285D01*
X77703571Y-72604285D02*
X77846428Y-72604285D01*
X77917857Y-72640000D01*
X77953571Y-72675714D01*
X78025000Y-72782857D01*
X78060714Y-72925714D01*
X78060714Y-73211428D01*
X78025000Y-73282857D01*
X77989285Y-73318571D01*
X77917857Y-73354285D01*
X77775000Y-73354285D01*
X77703571Y-73318571D01*
X77667857Y-73282857D01*
X77632142Y-73211428D01*
X77632142Y-73032857D01*
X77667857Y-72961428D01*
X77703571Y-72925714D01*
X77775000Y-72890000D01*
X77917857Y-72890000D01*
X77989285Y-72925714D01*
X78025000Y-72961428D01*
X78060714Y-73032857D01*
X87275000Y-74526071D02*
X87167857Y-74561785D01*
X86989285Y-74561785D01*
X86917857Y-74526071D01*
X86882142Y-74490357D01*
X86846428Y-74418928D01*
X86846428Y-74347500D01*
X86882142Y-74276071D01*
X86917857Y-74240357D01*
X86989285Y-74204642D01*
X87132142Y-74168928D01*
X87203571Y-74133214D01*
X87239285Y-74097500D01*
X87275000Y-74026071D01*
X87275000Y-73954642D01*
X87239285Y-73883214D01*
X87203571Y-73847500D01*
X87132142Y-73811785D01*
X86953571Y-73811785D01*
X86846428Y-73847500D01*
X86632142Y-73811785D02*
X86203571Y-73811785D01*
X86417857Y-74561785D02*
X86417857Y-73811785D01*
X85953571Y-74561785D02*
X85953571Y-73811785D01*
X85667857Y-73811785D01*
X85596428Y-73847500D01*
X85560714Y-73883214D01*
X85525000Y-73954642D01*
X85525000Y-74061785D01*
X85560714Y-74133214D01*
X85596428Y-74168928D01*
X85667857Y-74204642D01*
X85953571Y-74204642D01*
X85382142Y-74633214D02*
X84810714Y-74633214D01*
X84632142Y-74168928D02*
X84382142Y-74168928D01*
X84275000Y-74561785D02*
X84632142Y-74561785D01*
X84632142Y-73811785D01*
X84275000Y-73811785D01*
X83953571Y-74561785D02*
X83953571Y-73811785D01*
X83525000Y-74561785D01*
X83525000Y-73811785D01*
X81453571Y-74061785D02*
X82025000Y-74276071D01*
X81453571Y-74490357D01*
X81096428Y-74276071D02*
X80525000Y-74276071D01*
X80167857Y-74061785D02*
X79596428Y-74276071D01*
X80167857Y-74490357D01*
X78667857Y-74561785D02*
X78667857Y-73811785D01*
X78489285Y-73811785D01*
X78382142Y-73847500D01*
X78310714Y-73918928D01*
X78275000Y-73990357D01*
X78239285Y-74133214D01*
X78239285Y-74240357D01*
X78275000Y-74383214D01*
X78310714Y-74454642D01*
X78382142Y-74526071D01*
X78489285Y-74561785D01*
X78667857Y-74561785D01*
X77810714Y-74133214D02*
X77882142Y-74097500D01*
X77917857Y-74061785D01*
X77953571Y-73990357D01*
X77953571Y-73954642D01*
X77917857Y-73883214D01*
X77882142Y-73847500D01*
X77810714Y-73811785D01*
X77667857Y-73811785D01*
X77596428Y-73847500D01*
X77560714Y-73883214D01*
X77525000Y-73954642D01*
X77525000Y-73990357D01*
X77560714Y-74061785D01*
X77596428Y-74097500D01*
X77667857Y-74133214D01*
X77810714Y-74133214D01*
X77882142Y-74168928D01*
X77917857Y-74204642D01*
X77953571Y-74276071D01*
X77953571Y-74418928D01*
X77917857Y-74490357D01*
X77882142Y-74526071D01*
X77810714Y-74561785D01*
X77667857Y-74561785D01*
X77596428Y-74526071D01*
X77560714Y-74490357D01*
X77525000Y-74418928D01*
X77525000Y-74276071D01*
X77560714Y-74204642D01*
X77596428Y-74168928D01*
X77667857Y-74133214D01*
X86650000Y-75769285D02*
X86900000Y-75412142D01*
X87078571Y-75769285D02*
X87078571Y-75019285D01*
X86792857Y-75019285D01*
X86721428Y-75055000D01*
X86685714Y-75090714D01*
X86650000Y-75162142D01*
X86650000Y-75269285D01*
X86685714Y-75340714D01*
X86721428Y-75376428D01*
X86792857Y-75412142D01*
X87078571Y-75412142D01*
X86364285Y-75733571D02*
X86257142Y-75769285D01*
X86078571Y-75769285D01*
X86007142Y-75733571D01*
X85971428Y-75697857D01*
X85935714Y-75626428D01*
X85935714Y-75555000D01*
X85971428Y-75483571D01*
X86007142Y-75447857D01*
X86078571Y-75412142D01*
X86221428Y-75376428D01*
X86292857Y-75340714D01*
X86328571Y-75305000D01*
X86364285Y-75233571D01*
X86364285Y-75162142D01*
X86328571Y-75090714D01*
X86292857Y-75055000D01*
X86221428Y-75019285D01*
X86042857Y-75019285D01*
X85935714Y-75055000D01*
X85721428Y-75019285D02*
X85292857Y-75019285D01*
X85507142Y-75769285D02*
X85507142Y-75019285D01*
X81614285Y-75269285D02*
X82185714Y-75483571D01*
X81614285Y-75697857D01*
X81257142Y-75483571D02*
X80685714Y-75483571D01*
X80328571Y-75269285D02*
X79757142Y-75483571D01*
X80328571Y-75697857D01*
X78828571Y-75769285D02*
X78828571Y-75019285D01*
X78650000Y-75019285D01*
X78542857Y-75055000D01*
X78471428Y-75126428D01*
X78435714Y-75197857D01*
X78400000Y-75340714D01*
X78400000Y-75447857D01*
X78435714Y-75590714D01*
X78471428Y-75662142D01*
X78542857Y-75733571D01*
X78650000Y-75769285D01*
X78828571Y-75769285D01*
X78042857Y-75769285D02*
X77900000Y-75769285D01*
X77828571Y-75733571D01*
X77792857Y-75697857D01*
X77721428Y-75590714D01*
X77685714Y-75447857D01*
X77685714Y-75162142D01*
X77721428Y-75090714D01*
X77757142Y-75055000D01*
X77828571Y-75019285D01*
X77971428Y-75019285D01*
X78042857Y-75055000D01*
X78078571Y-75090714D01*
X78114285Y-75162142D01*
X78114285Y-75340714D01*
X78078571Y-75412142D01*
X78042857Y-75447857D01*
X77971428Y-75483571D01*
X77828571Y-75483571D01*
X77757142Y-75447857D01*
X77721428Y-75412142D01*
X77685714Y-75340714D01*
X113690476Y-79785714D02*
X113690476Y-80595238D01*
X113738095Y-80690476D01*
X113785714Y-80738095D01*
X113880952Y-80785714D01*
X114023809Y-80785714D01*
X114119047Y-80738095D01*
X113690476Y-80404761D02*
X113785714Y-80452380D01*
X113976190Y-80452380D01*
X114071428Y-80404761D01*
X114119047Y-80357142D01*
X114166666Y-80261904D01*
X114166666Y-79976190D01*
X114119047Y-79880952D01*
X114071428Y-79833333D01*
X113976190Y-79785714D01*
X113785714Y-79785714D01*
X113690476Y-79833333D01*
X113214285Y-80452380D02*
X113214285Y-79785714D01*
X113214285Y-79452380D02*
X113261904Y-79500000D01*
X113214285Y-79547619D01*
X113166666Y-79500000D01*
X113214285Y-79452380D01*
X113214285Y-79547619D01*
X112880952Y-79785714D02*
X112500000Y-79785714D01*
X112738095Y-79452380D02*
X112738095Y-80309523D01*
X112690476Y-80404761D01*
X112595238Y-80452380D01*
X112500000Y-80452380D01*
X112166666Y-80452380D02*
X112166666Y-79452380D01*
X111738095Y-80452380D02*
X111738095Y-79928571D01*
X111785714Y-79833333D01*
X111880952Y-79785714D01*
X112023809Y-79785714D01*
X112119047Y-79833333D01*
X112166666Y-79880952D01*
X110833333Y-79785714D02*
X110833333Y-80452380D01*
X111261904Y-79785714D02*
X111261904Y-80309523D01*
X111214285Y-80404761D01*
X111119047Y-80452380D01*
X110976190Y-80452380D01*
X110880952Y-80404761D01*
X110833333Y-80357142D01*
X110357142Y-80452380D02*
X110357142Y-79452380D01*
X110357142Y-79833333D02*
X110261904Y-79785714D01*
X110071428Y-79785714D01*
X109976190Y-79833333D01*
X109928571Y-79880952D01*
X109880952Y-79976190D01*
X109880952Y-80261904D01*
X109928571Y-80357142D01*
X109976190Y-80404761D01*
X110071428Y-80452380D01*
X110261904Y-80452380D01*
X110357142Y-80404761D01*
X109452380Y-80357142D02*
X109404761Y-80404761D01*
X109452380Y-80452380D01*
X109500000Y-80404761D01*
X109452380Y-80357142D01*
X109452380Y-80452380D01*
X108547619Y-80404761D02*
X108642857Y-80452380D01*
X108833333Y-80452380D01*
X108928571Y-80404761D01*
X108976190Y-80357142D01*
X109023809Y-80261904D01*
X109023809Y-79976190D01*
X108976190Y-79880952D01*
X108928571Y-79833333D01*
X108833333Y-79785714D01*
X108642857Y-79785714D01*
X108547619Y-79833333D01*
X107976190Y-80452380D02*
X108071428Y-80404761D01*
X108119047Y-80357142D01*
X108166666Y-80261904D01*
X108166666Y-79976190D01*
X108119047Y-79880952D01*
X108071428Y-79833333D01*
X107976190Y-79785714D01*
X107833333Y-79785714D01*
X107738095Y-79833333D01*
X107690476Y-79880952D01*
X107642857Y-79976190D01*
X107642857Y-80261904D01*
X107690476Y-80357142D01*
X107738095Y-80404761D01*
X107833333Y-80452380D01*
X107976190Y-80452380D01*
X107214285Y-80452380D02*
X107214285Y-79785714D01*
X107214285Y-79880952D02*
X107166666Y-79833333D01*
X107071428Y-79785714D01*
X106928571Y-79785714D01*
X106833333Y-79833333D01*
X106785714Y-79928571D01*
X106785714Y-80452380D01*
X106785714Y-79928571D02*
X106738095Y-79833333D01*
X106642857Y-79785714D01*
X106500000Y-79785714D01*
X106404761Y-79833333D01*
X106357142Y-79928571D01*
X106357142Y-80452380D01*
X105166666Y-79404761D02*
X106023809Y-80690476D01*
X104309523Y-79500000D02*
X104404761Y-79452380D01*
X104547619Y-79452380D01*
X104690476Y-79500000D01*
X104785714Y-79595238D01*
X104833333Y-79690476D01*
X104880952Y-79880952D01*
X104880952Y-80023809D01*
X104833333Y-80214285D01*
X104785714Y-80309523D01*
X104690476Y-80404761D01*
X104547619Y-80452380D01*
X104452380Y-80452380D01*
X104309523Y-80404761D01*
X104261904Y-80357142D01*
X104261904Y-80023809D01*
X104452380Y-80023809D01*
X103452380Y-80404761D02*
X103547619Y-80452380D01*
X103738095Y-80452380D01*
X103833333Y-80404761D01*
X103880952Y-80309523D01*
X103880952Y-79928571D01*
X103833333Y-79833333D01*
X103738095Y-79785714D01*
X103547619Y-79785714D01*
X103452380Y-79833333D01*
X103404761Y-79928571D01*
X103404761Y-80023809D01*
X103880952Y-80119047D01*
X102976190Y-79785714D02*
X102976190Y-80452380D01*
X102976190Y-79880952D02*
X102928571Y-79833333D01*
X102833333Y-79785714D01*
X102690476Y-79785714D01*
X102595238Y-79833333D01*
X102547619Y-79928571D01*
X102547619Y-80452380D01*
X101690476Y-80404761D02*
X101785714Y-80452380D01*
X101976190Y-80452380D01*
X102071428Y-80404761D01*
X102119047Y-80309523D01*
X102119047Y-79928571D01*
X102071428Y-79833333D01*
X101976190Y-79785714D01*
X101785714Y-79785714D01*
X101690476Y-79833333D01*
X101642857Y-79928571D01*
X101642857Y-80023809D01*
X102119047Y-80119047D01*
X101214285Y-80452380D02*
X101214285Y-79785714D01*
X101214285Y-79976190D02*
X101166666Y-79880952D01*
X101119047Y-79833333D01*
X101023809Y-79785714D01*
X100928571Y-79785714D01*
X100166666Y-80452380D02*
X100166666Y-79928571D01*
X100214285Y-79833333D01*
X100309523Y-79785714D01*
X100500000Y-79785714D01*
X100595238Y-79833333D01*
X100166666Y-80404761D02*
X100261904Y-80452380D01*
X100500000Y-80452380D01*
X100595238Y-80404761D01*
X100642857Y-80309523D01*
X100642857Y-80214285D01*
X100595238Y-80119047D01*
X100500000Y-80071428D01*
X100261904Y-80071428D01*
X100166666Y-80023809D01*
X99547619Y-80452380D02*
X99642857Y-80404761D01*
X99690476Y-80309523D01*
X99690476Y-79452380D01*
X99214285Y-80404761D02*
X99071428Y-80452380D01*
X98833333Y-80452380D01*
X98738095Y-80404761D01*
X98690476Y-80357142D01*
X98642857Y-80261904D01*
X98642857Y-80166666D01*
X98690476Y-80071428D01*
X98738095Y-80023809D01*
X98833333Y-79976190D01*
X99023809Y-79928571D01*
X99119047Y-79880952D01*
X99166666Y-79833333D01*
X99214285Y-79738095D01*
X99214285Y-79642857D01*
X99166666Y-79547619D01*
X99119047Y-79500000D01*
X99023809Y-79452380D01*
X98785714Y-79452380D01*
X98642857Y-79500000D01*
X98309523Y-79785714D02*
X98071428Y-80452380D01*
X97833333Y-79785714D02*
X98071428Y-80452380D01*
X98166666Y-80690476D01*
X98214285Y-80738095D01*
X98309523Y-80785714D01*
X97452380Y-80452380D02*
X97452380Y-79452380D01*
X97452380Y-79833333D02*
X97357142Y-79785714D01*
X97166666Y-79785714D01*
X97071428Y-79833333D01*
X97023809Y-79880952D01*
X96976190Y-79976190D01*
X96976190Y-80261904D01*
X97023809Y-80357142D01*
X97071428Y-80404761D01*
X97166666Y-80452380D01*
X97357142Y-80452380D01*
X97452380Y-80404761D01*
X95833333Y-79404761D02*
X96690476Y-80690476D01*
X95547619Y-80404761D02*
X95404761Y-80452380D01*
X95166666Y-80452380D01*
X95071428Y-80404761D01*
X95023809Y-80357142D01*
X94976190Y-80261904D01*
X94976190Y-80166666D01*
X95023809Y-80071428D01*
X95071428Y-80023809D01*
X95166666Y-79976190D01*
X95357142Y-79928571D01*
X95452380Y-79880952D01*
X95500000Y-79833333D01*
X95547619Y-79738095D01*
X95547619Y-79642857D01*
X95500000Y-79547619D01*
X95452380Y-79500000D01*
X95357142Y-79452380D01*
X95119047Y-79452380D01*
X94976190Y-79500000D01*
X94690476Y-79785714D02*
X94309523Y-79785714D01*
X94547619Y-79452380D02*
X94547619Y-80309523D01*
X94500000Y-80404761D01*
X94404761Y-80452380D01*
X94309523Y-80452380D01*
X93595238Y-80404761D02*
X93690476Y-80452380D01*
X93880952Y-80452380D01*
X93976190Y-80404761D01*
X94023809Y-80309523D01*
X94023809Y-79928571D01*
X93976190Y-79833333D01*
X93880952Y-79785714D01*
X93690476Y-79785714D01*
X93595238Y-79833333D01*
X93547619Y-79928571D01*
X93547619Y-80023809D01*
X94023809Y-80119047D01*
X93119047Y-79785714D02*
X93119047Y-80785714D01*
X93119047Y-79833333D02*
X93023809Y-79785714D01*
X92833333Y-79785714D01*
X92738095Y-79833333D01*
X92690476Y-79880952D01*
X92642857Y-79976190D01*
X92642857Y-80261904D01*
X92690476Y-80357142D01*
X92738095Y-80404761D01*
X92833333Y-80452380D01*
X93023809Y-80452380D01*
X93119047Y-80404761D01*
X92214285Y-80071428D02*
X91452380Y-80071428D01*
X90976190Y-80452380D02*
X90976190Y-79785714D01*
X90976190Y-79880952D02*
X90928571Y-79833333D01*
X90833333Y-79785714D01*
X90690476Y-79785714D01*
X90595238Y-79833333D01*
X90547619Y-79928571D01*
X90547619Y-80452380D01*
X90547619Y-79928571D02*
X90500000Y-79833333D01*
X90404761Y-79785714D01*
X90261904Y-79785714D01*
X90166666Y-79833333D01*
X90119047Y-79928571D01*
X90119047Y-80452380D01*
X89500000Y-80452380D02*
X89595238Y-80404761D01*
X89642857Y-80357142D01*
X89690476Y-80261904D01*
X89690476Y-79976190D01*
X89642857Y-79880952D01*
X89595238Y-79833333D01*
X89500000Y-79785714D01*
X89357142Y-79785714D01*
X89261904Y-79833333D01*
X89214285Y-79880952D01*
X89166666Y-79976190D01*
X89166666Y-80261904D01*
X89214285Y-80357142D01*
X89261904Y-80404761D01*
X89357142Y-80452380D01*
X89500000Y-80452380D01*
X88595238Y-80452380D02*
X88690476Y-80404761D01*
X88738095Y-80357142D01*
X88785714Y-80261904D01*
X88785714Y-79976190D01*
X88738095Y-79880952D01*
X88690476Y-79833333D01*
X88595238Y-79785714D01*
X88452380Y-79785714D01*
X88357142Y-79833333D01*
X88309523Y-79880952D01*
X88261904Y-79976190D01*
X88261904Y-80261904D01*
X88309523Y-80357142D01*
X88357142Y-80404761D01*
X88452380Y-80452380D01*
X88595238Y-80452380D01*
X87833333Y-79785714D02*
X87833333Y-80452380D01*
X87833333Y-79880952D02*
X87785714Y-79833333D01*
X87690476Y-79785714D01*
X87547619Y-79785714D01*
X87452380Y-79833333D01*
X87404761Y-79928571D01*
X87404761Y-80452380D01*
X86785714Y-80452380D02*
X86880952Y-80404761D01*
X86928571Y-80309523D01*
X86928571Y-79452380D01*
X86404761Y-80452380D02*
X86404761Y-79785714D01*
X86404761Y-79452380D02*
X86452380Y-79500000D01*
X86404761Y-79547619D01*
X86357142Y-79500000D01*
X86404761Y-79452380D01*
X86404761Y-79547619D01*
X86071428Y-79785714D02*
X85690476Y-79785714D01*
X85928571Y-79452380D02*
X85928571Y-80309523D01*
X85880952Y-80404761D01*
X85785714Y-80452380D01*
X85690476Y-80452380D01*
X84976190Y-80404761D02*
X85071428Y-80452380D01*
X85261904Y-80452380D01*
X85357142Y-80404761D01*
X85404761Y-80309523D01*
X85404761Y-79928571D01*
X85357142Y-79833333D01*
X85261904Y-79785714D01*
X85071428Y-79785714D01*
X84976190Y-79833333D01*
X84928571Y-79928571D01*
X84928571Y-80023809D01*
X85404761Y-80119047D01*
X84500000Y-80071428D02*
X83738095Y-80071428D01*
X82833333Y-80452380D02*
X82833333Y-79928571D01*
X82880952Y-79833333D01*
X82976190Y-79785714D01*
X83166666Y-79785714D01*
X83261904Y-79833333D01*
X82833333Y-80404761D02*
X82928571Y-80452380D01*
X83166666Y-80452380D01*
X83261904Y-80404761D01*
X83309523Y-80309523D01*
X83309523Y-80214285D01*
X83261904Y-80119047D01*
X83166666Y-80071428D01*
X82928571Y-80071428D01*
X82833333Y-80023809D01*
X82404761Y-80404761D02*
X82309523Y-80452380D01*
X82119047Y-80452380D01*
X82023809Y-80404761D01*
X81976190Y-80309523D01*
X81976190Y-80261904D01*
X82023809Y-80166666D01*
X82119047Y-80119047D01*
X82261904Y-80119047D01*
X82357142Y-80071428D01*
X82404761Y-79976190D01*
X82404761Y-79928571D01*
X82357142Y-79833333D01*
X82261904Y-79785714D01*
X82119047Y-79785714D01*
X82023809Y-79833333D01*
X81690476Y-79785714D02*
X81309523Y-79785714D01*
X81547619Y-79452380D02*
X81547619Y-80309523D01*
X81500000Y-80404761D01*
X81404761Y-80452380D01*
X81309523Y-80452380D01*
X80976190Y-80452380D02*
X80976190Y-79785714D01*
X80976190Y-79976190D02*
X80928571Y-79880952D01*
X80880952Y-79833333D01*
X80785714Y-79785714D01*
X80690476Y-79785714D01*
X80214285Y-80452380D02*
X80309523Y-80404761D01*
X80357142Y-80357142D01*
X80404761Y-80261904D01*
X80404761Y-79976190D01*
X80357142Y-79880952D01*
X80309523Y-79833333D01*
X80214285Y-79785714D01*
X80071428Y-79785714D01*
X79976190Y-79833333D01*
X79928571Y-79880952D01*
X79880952Y-79976190D01*
X79880952Y-80261904D01*
X79928571Y-80357142D01*
X79976190Y-80404761D01*
X80071428Y-80452380D01*
X80214285Y-80452380D01*
X79595238Y-79785714D02*
X79214285Y-79785714D01*
X79452380Y-80452380D02*
X79452380Y-79595238D01*
X79404761Y-79500000D01*
X79309523Y-79452380D01*
X79214285Y-79452380D01*
X78738095Y-80452380D02*
X78833333Y-80404761D01*
X78880952Y-80357142D01*
X78928571Y-80261904D01*
X78928571Y-79976190D01*
X78880952Y-79880952D01*
X78833333Y-79833333D01*
X78738095Y-79785714D01*
X78595238Y-79785714D01*
X78500000Y-79833333D01*
X78452380Y-79880952D01*
X78404761Y-79976190D01*
X78404761Y-80261904D01*
X78452380Y-80357142D01*
X78500000Y-80404761D01*
X78595238Y-80452380D01*
X78738095Y-80452380D01*
X77547619Y-80404761D02*
X77642857Y-80452380D01*
X77833333Y-80452380D01*
X77928571Y-80404761D01*
X77976190Y-80357142D01*
X78023809Y-80261904D01*
X78023809Y-79976190D01*
X77976190Y-79880952D01*
X77928571Y-79833333D01*
X77833333Y-79785714D01*
X77642857Y-79785714D01*
X77547619Y-79833333D01*
X76690476Y-79785714D02*
X76690476Y-80452380D01*
X77119047Y-79785714D02*
X77119047Y-80309523D01*
X77071428Y-80404761D01*
X76976190Y-80452380D01*
X76833333Y-80452380D01*
X76738095Y-80404761D01*
X76690476Y-80357142D01*
X76261904Y-80404761D02*
X76166666Y-80452380D01*
X75976190Y-80452380D01*
X75880952Y-80404761D01*
X75833333Y-80309523D01*
X75833333Y-80261904D01*
X75880952Y-80166666D01*
X75976190Y-80119047D01*
X76119047Y-80119047D01*
X76214285Y-80071428D01*
X76261904Y-79976190D01*
X76261904Y-79928571D01*
X76214285Y-79833333D01*
X76119047Y-79785714D01*
X75976190Y-79785714D01*
X75880952Y-79833333D01*
M02*
