%TF.GenerationSoftware,KiCad,Pcbnew,(6.0.9)*%
%TF.CreationDate,2023-09-21T20:23:22+02:00*%
%TF.ProjectId,EZFocus,455a466f-6375-4732-9e6b-696361645f70,rev?*%
%TF.SameCoordinates,Original*%
%TF.FileFunction,Soldermask,Top*%
%TF.FilePolarity,Negative*%
%FSLAX46Y46*%
G04 Gerber Fmt 4.6, Leading zero omitted, Abs format (unit mm)*
G04 Created by KiCad (PCBNEW (6.0.9)) date 2023-09-21 20:23:22*
%MOMM*%
%LPD*%
G01*
G04 APERTURE LIST*
%TA.AperFunction,Profile*%
%ADD10C,0.100000*%
%TD*%
%ADD11O,1.998980X2.748280*%
%ADD12O,2.032000X1.016000*%
%ADD13C,1.143000*%
%ADD14R,2.100000X2.100000*%
%ADD15C,2.100000*%
%ADD16C,0.700000*%
%ADD17C,4.400000*%
%ADD18R,1.600000X1.600000*%
%ADD19C,1.600000*%
%ADD20C,1.700000*%
%ADD21R,2.000000X4.600000*%
%ADD22O,2.000000X4.200000*%
%ADD23O,4.200000X2.000000*%
G04 APERTURE END LIST*
D10*
X118000000Y-90000000D02*
X118000000Y-63000000D01*
X75000000Y-93000000D02*
X115000000Y-93000000D01*
X75000000Y-60000000D02*
G75*
G03*
X72000000Y-63000000I0J-3000000D01*
G01*
X118000000Y-63000000D02*
G75*
G03*
X115000000Y-60000000I-3000000J0D01*
G01*
X72000000Y-90000000D02*
G75*
G03*
X75000000Y-93000000I3000000J0D01*
G01*
X115000000Y-60000000D02*
X75000000Y-60000000D01*
X72000000Y-63000000D02*
X72000000Y-90000000D01*
X115000000Y-93000000D02*
G75*
G03*
X118000000Y-90000000I0J3000000D01*
G01*
D11*
%TO.C,U1*%
X75060490Y-78681290D03*
X77600490Y-78681290D03*
X80140490Y-78681290D03*
X82680490Y-78681290D03*
X85220490Y-78681290D03*
X87760490Y-78681290D03*
X90300490Y-78681290D03*
X90300490Y-62516730D03*
X87760490Y-62516730D03*
X85220490Y-62516730D03*
X82680490Y-62516730D03*
X80140490Y-62516730D03*
X77600490Y-62516730D03*
X75060490Y-62516730D03*
D12*
X91378310Y-71814410D03*
X91378310Y-69264410D03*
D13*
X74374123Y-71815607D03*
X74374123Y-69275607D03*
X76914123Y-71815607D03*
X76914123Y-69275607D03*
%TD*%
D14*
%TO.C,J2*%
X102600000Y-82385000D03*
D15*
X102600000Y-84925000D03*
X102600000Y-87465000D03*
X102600000Y-90005000D03*
%TD*%
D14*
%TO.C,J3*%
X91760000Y-84000000D03*
D15*
X94300000Y-84000000D03*
X96840000Y-84000000D03*
%TD*%
D16*
%TO.C,REF\u002A\u002A*%
X90650000Y-90000000D03*
X87833274Y-88833274D03*
X90166726Y-91166726D03*
X87350000Y-90000000D03*
D17*
X89000000Y-90000000D03*
D16*
X89000000Y-88350000D03*
X87833274Y-91166726D03*
X89000000Y-91650000D03*
X90166726Y-88833274D03*
%TD*%
D18*
%TO.C,C1*%
X99100000Y-72470937D03*
X100700000Y-71800000D03*
D19*
X102300000Y-68629063D03*
X100700000Y-69300000D03*
%TD*%
D16*
%TO.C,REF\u002A\u002A*%
X113350000Y-70000000D03*
X116166726Y-68833274D03*
X115000000Y-71650000D03*
X115000000Y-68350000D03*
X113833274Y-71166726D03*
D17*
X115000000Y-70000000D03*
D16*
X113833274Y-68833274D03*
X116650000Y-70000000D03*
X116166726Y-71166726D03*
%TD*%
D20*
%TO.C,U2*%
X114690000Y-77000000D03*
X112150000Y-77000000D03*
X109610000Y-77000000D03*
X107070000Y-77000000D03*
X104530000Y-77000000D03*
X101990000Y-77000000D03*
X99450000Y-77000000D03*
X96910000Y-77000000D03*
X114690000Y-64300000D03*
X112150000Y-64300000D03*
X109610000Y-64300000D03*
X107070000Y-64300000D03*
X104530000Y-64300000D03*
X101990000Y-64300000D03*
X99450000Y-64300000D03*
X96910000Y-64300000D03*
%TD*%
D16*
%TO.C,REF\u002A\u002A*%
X116166726Y-88833274D03*
D17*
X115000000Y-90000000D03*
D16*
X116166726Y-91166726D03*
X113833274Y-91166726D03*
X116650000Y-90000000D03*
X113833274Y-88833274D03*
X113350000Y-90000000D03*
X115000000Y-91650000D03*
X115000000Y-88350000D03*
%TD*%
D21*
%TO.C,J1*%
X84300000Y-86100000D03*
D22*
X78000000Y-86100000D03*
D23*
X81400000Y-90900000D03*
%TD*%
M02*
