%TF.GenerationSoftware,KiCad,Pcbnew,(6.0.9)*%
%TF.CreationDate,2023-09-21T20:23:22+02:00*%
%TF.ProjectId,EZFocus,455a466f-6375-4732-9e6b-696361645f70,rev?*%
%TF.SameCoordinates,Original*%
%TF.FileFunction,Legend,Top*%
%TF.FilePolarity,Positive*%
%FSLAX46Y46*%
G04 Gerber Fmt 4.6, Leading zero omitted, Abs format (unit mm)*
G04 Created by KiCad (PCBNEW (6.0.9)) date 2023-09-21 20:23:22*
%MOMM*%
%LPD*%
G01*
G04 APERTURE LIST*
%TA.AperFunction,Profile*%
%ADD10C,0.100000*%
%TD*%
%ADD11C,0.187500*%
%ADD12C,0.300000*%
%ADD13C,0.150000*%
%ADD14C,0.101600*%
%ADD15C,0.076200*%
%ADD16C,0.125000*%
%ADD17C,0.066040*%
%ADD18C,0.127000*%
%ADD19C,0.254000*%
%ADD20C,0.120000*%
%ADD21C,0.500000*%
G04 APERTURE END LIST*
D10*
X118000000Y-90000000D02*
X118000000Y-63000000D01*
X75000000Y-93000000D02*
X115000000Y-93000000D01*
X75000000Y-60000000D02*
G75*
G03*
X72000000Y-63000000I0J-3000000D01*
G01*
X118000000Y-63000000D02*
G75*
G03*
X115000000Y-60000000I-3000000J0D01*
G01*
X72000000Y-90000000D02*
G75*
G03*
X75000000Y-93000000I3000000J0D01*
G01*
X115000000Y-60000000D02*
X75000000Y-60000000D01*
X72000000Y-63000000D02*
X72000000Y-90000000D01*
X115000000Y-93000000D02*
G75*
G03*
X118000000Y-90000000I0J3000000D01*
G01*
D11*
X93556428Y-88539285D02*
X93556428Y-87789285D01*
X93735000Y-87789285D01*
X93842142Y-87825000D01*
X93913571Y-87896428D01*
X93949285Y-87967857D01*
X93985000Y-88110714D01*
X93985000Y-88217857D01*
X93949285Y-88360714D01*
X93913571Y-88432142D01*
X93842142Y-88503571D01*
X93735000Y-88539285D01*
X93556428Y-88539285D01*
X94270714Y-88325000D02*
X94627857Y-88325000D01*
X94199285Y-88539285D02*
X94449285Y-87789285D01*
X94699285Y-88539285D01*
X94842142Y-87789285D02*
X95270714Y-87789285D01*
X95056428Y-88539285D02*
X95056428Y-87789285D01*
X106546428Y-90283571D02*
X106582142Y-90176428D01*
X106617857Y-90140714D01*
X106689285Y-90105000D01*
X106796428Y-90105000D01*
X106867857Y-90140714D01*
X106903571Y-90176428D01*
X106939285Y-90247857D01*
X106939285Y-90533571D01*
X106189285Y-90533571D01*
X106189285Y-90283571D01*
X106225000Y-90212142D01*
X106260714Y-90176428D01*
X106332142Y-90140714D01*
X106403571Y-90140714D01*
X106475000Y-90176428D01*
X106510714Y-90212142D01*
X106546428Y-90283571D01*
X106546428Y-90533571D01*
X106260714Y-89819285D02*
X106225000Y-89783571D01*
X106189285Y-89712142D01*
X106189285Y-89533571D01*
X106225000Y-89462142D01*
X106260714Y-89426428D01*
X106332142Y-89390714D01*
X106403571Y-89390714D01*
X106510714Y-89426428D01*
X106939285Y-89855000D01*
X106939285Y-89390714D01*
D12*
X109171572Y-90838579D02*
X109171572Y-90973266D01*
X109036885Y-91242640D01*
X108902198Y-91377327D01*
X108632824Y-91512014D01*
X108363450Y-91512014D01*
X108161420Y-91444671D01*
X107824702Y-91242640D01*
X107622672Y-91040610D01*
X107420641Y-90703892D01*
X107353298Y-90501862D01*
X107353298Y-90232488D01*
X107487985Y-89963114D01*
X107622672Y-89828427D01*
X107892046Y-89693740D01*
X108026733Y-89693740D01*
X109912351Y-90367175D02*
X108498137Y-88952961D01*
X110518442Y-89761083D02*
X109777664Y-89020305D01*
X109575633Y-88952961D01*
X109373603Y-89020305D01*
X109171572Y-89222335D01*
X109104229Y-89424366D01*
X109104229Y-89559053D01*
X111393908Y-88885618D02*
X111191877Y-88952961D01*
X111057190Y-88952961D01*
X110855160Y-88885618D01*
X110451099Y-88481557D01*
X110383755Y-88279526D01*
X110383755Y-88144839D01*
X110451099Y-87942809D01*
X110653129Y-87740778D01*
X110855160Y-87673435D01*
X110989847Y-87673435D01*
X111191877Y-87740778D01*
X111595938Y-88144839D01*
X111663282Y-88346870D01*
X111663282Y-88481557D01*
X111595938Y-88683587D01*
X111393908Y-88885618D01*
X113010152Y-87134687D02*
X112942809Y-87336717D01*
X112673435Y-87606091D01*
X112471404Y-87673435D01*
X112336717Y-87673435D01*
X112134687Y-87606091D01*
X111730625Y-87202030D01*
X111663282Y-87000000D01*
X111663282Y-86865312D01*
X111730625Y-86663282D01*
X112000000Y-86393908D01*
X112202030Y-86326564D01*
X113885618Y-86393908D02*
X113683587Y-86461251D01*
X113548900Y-86461251D01*
X113346870Y-86393908D01*
X112942809Y-85989847D01*
X112875465Y-85787816D01*
X112875465Y-85653129D01*
X112942809Y-85451099D01*
X113144839Y-85249068D01*
X113346870Y-85181725D01*
X113481557Y-85181725D01*
X113683587Y-85249068D01*
X114087648Y-85653129D01*
X114154992Y-85855160D01*
X114154992Y-85989847D01*
X114087648Y-86191877D01*
X113885618Y-86393908D01*
X114222335Y-84575633D02*
X114693740Y-84104229D01*
X115636549Y-84642977D02*
X114963114Y-85316412D01*
X113548900Y-83902198D01*
X114222335Y-83228763D01*
X115973266Y-82824702D02*
X115501862Y-83296107D01*
X116242640Y-84036885D02*
X114828427Y-82622672D01*
X115501862Y-81949237D01*
D13*
X87952619Y-82538095D02*
X88428809Y-82204761D01*
X87952619Y-81966666D02*
X88952619Y-81966666D01*
X88952619Y-82347619D01*
X88905000Y-82442857D01*
X88857380Y-82490476D01*
X88762142Y-82538095D01*
X88619285Y-82538095D01*
X88524047Y-82490476D01*
X88476428Y-82442857D01*
X88428809Y-82347619D01*
X88428809Y-81966666D01*
X88047857Y-83538095D02*
X88000238Y-83490476D01*
X87952619Y-83347619D01*
X87952619Y-83252380D01*
X88000238Y-83109523D01*
X88095476Y-83014285D01*
X88190714Y-82966666D01*
X88381190Y-82919047D01*
X88524047Y-82919047D01*
X88714523Y-82966666D01*
X88809761Y-83014285D01*
X88905000Y-83109523D01*
X88952619Y-83252380D01*
X88952619Y-83347619D01*
X88905000Y-83490476D01*
X88857380Y-83538095D01*
X87952619Y-83966666D02*
X88952619Y-83966666D01*
X88238333Y-84300000D01*
X88952619Y-84633333D01*
X87952619Y-84633333D01*
X87952619Y-85109523D02*
X88952619Y-85109523D01*
X88952619Y-85347619D01*
X88905000Y-85490476D01*
X88809761Y-85585714D01*
X88714523Y-85633333D01*
X88524047Y-85680952D01*
X88381190Y-85680952D01*
X88190714Y-85633333D01*
X88095476Y-85585714D01*
X88000238Y-85490476D01*
X87952619Y-85347619D01*
X87952619Y-85109523D01*
X86342619Y-81609523D02*
X86342619Y-81038095D01*
X86342619Y-81323809D02*
X87342619Y-81323809D01*
X87199761Y-81228571D01*
X87104523Y-81133333D01*
X87056904Y-81038095D01*
X87247380Y-81990476D02*
X87295000Y-82038095D01*
X87342619Y-82133333D01*
X87342619Y-82371428D01*
X87295000Y-82466666D01*
X87247380Y-82514285D01*
X87152142Y-82561904D01*
X87056904Y-82561904D01*
X86914047Y-82514285D01*
X86342619Y-81942857D01*
X86342619Y-82561904D01*
X86723571Y-82990476D02*
X86723571Y-83752380D01*
X87247380Y-84180952D02*
X87295000Y-84228571D01*
X87342619Y-84323809D01*
X87342619Y-84561904D01*
X87295000Y-84657142D01*
X87247380Y-84704761D01*
X87152142Y-84752380D01*
X87056904Y-84752380D01*
X86914047Y-84704761D01*
X86342619Y-84133333D01*
X86342619Y-84752380D01*
X87342619Y-85371428D02*
X87342619Y-85466666D01*
X87295000Y-85561904D01*
X87247380Y-85609523D01*
X87152142Y-85657142D01*
X86961666Y-85704761D01*
X86723571Y-85704761D01*
X86533095Y-85657142D01*
X86437857Y-85609523D01*
X86390238Y-85561904D01*
X86342619Y-85466666D01*
X86342619Y-85371428D01*
X86390238Y-85276190D01*
X86437857Y-85228571D01*
X86533095Y-85180952D01*
X86723571Y-85133333D01*
X86961666Y-85133333D01*
X87152142Y-85180952D01*
X87247380Y-85228571D01*
X87295000Y-85276190D01*
X87342619Y-85371428D01*
X87342619Y-85990476D02*
X86342619Y-86323809D01*
X87342619Y-86657142D01*
D11*
X91832142Y-89089285D02*
X92260714Y-89089285D01*
X92046428Y-89839285D02*
X92046428Y-89089285D01*
X92796428Y-89803571D02*
X92725000Y-89839285D01*
X92582142Y-89839285D01*
X92510714Y-89803571D01*
X92475000Y-89732142D01*
X92475000Y-89446428D01*
X92510714Y-89375000D01*
X92582142Y-89339285D01*
X92725000Y-89339285D01*
X92796428Y-89375000D01*
X92832142Y-89446428D01*
X92832142Y-89517857D01*
X92475000Y-89589285D01*
X93153571Y-89839285D02*
X93153571Y-89339285D01*
X93153571Y-89410714D02*
X93189285Y-89375000D01*
X93260714Y-89339285D01*
X93367857Y-89339285D01*
X93439285Y-89375000D01*
X93475000Y-89446428D01*
X93475000Y-89839285D01*
X93475000Y-89446428D02*
X93510714Y-89375000D01*
X93582142Y-89339285D01*
X93689285Y-89339285D01*
X93760714Y-89375000D01*
X93796428Y-89446428D01*
X93796428Y-89839285D01*
X94153571Y-89339285D02*
X94153571Y-90089285D01*
X94153571Y-89375000D02*
X94225000Y-89339285D01*
X94367857Y-89339285D01*
X94439285Y-89375000D01*
X94475000Y-89410714D01*
X94510714Y-89482142D01*
X94510714Y-89696428D01*
X94475000Y-89767857D01*
X94439285Y-89803571D01*
X94367857Y-89839285D01*
X94225000Y-89839285D01*
X94153571Y-89803571D01*
X95403571Y-89839285D02*
X95403571Y-89089285D01*
X95689285Y-89089285D01*
X95760714Y-89125000D01*
X95796428Y-89160714D01*
X95832142Y-89232142D01*
X95832142Y-89339285D01*
X95796428Y-89410714D01*
X95760714Y-89446428D01*
X95689285Y-89482142D01*
X95403571Y-89482142D01*
X96153571Y-89839285D02*
X96153571Y-89339285D01*
X96153571Y-89482142D02*
X96189285Y-89410714D01*
X96225000Y-89375000D01*
X96296428Y-89339285D01*
X96367857Y-89339285D01*
X96725000Y-89839285D02*
X96653571Y-89803571D01*
X96617857Y-89767857D01*
X96582142Y-89696428D01*
X96582142Y-89482142D01*
X96617857Y-89410714D01*
X96653571Y-89375000D01*
X96725000Y-89339285D01*
X96832142Y-89339285D01*
X96903571Y-89375000D01*
X96939285Y-89410714D01*
X96975000Y-89482142D01*
X96975000Y-89696428D01*
X96939285Y-89767857D01*
X96903571Y-89803571D01*
X96832142Y-89839285D01*
X96725000Y-89839285D01*
X97296428Y-89839285D02*
X97296428Y-89089285D01*
X97296428Y-89375000D02*
X97367857Y-89339285D01*
X97510714Y-89339285D01*
X97582142Y-89375000D01*
X97617857Y-89410714D01*
X97653571Y-89482142D01*
X97653571Y-89696428D01*
X97617857Y-89767857D01*
X97582142Y-89803571D01*
X97510714Y-89839285D01*
X97367857Y-89839285D01*
X97296428Y-89803571D01*
X98260714Y-89803571D02*
X98189285Y-89839285D01*
X98046428Y-89839285D01*
X97975000Y-89803571D01*
X97939285Y-89732142D01*
X97939285Y-89446428D01*
X97975000Y-89375000D01*
X98046428Y-89339285D01*
X98189285Y-89339285D01*
X98260714Y-89375000D01*
X98296428Y-89446428D01*
X98296428Y-89517857D01*
X97939285Y-89589285D01*
X106725000Y-82895714D02*
X106725000Y-82538571D01*
X106939285Y-82967142D02*
X106189285Y-82717142D01*
X106939285Y-82467142D01*
X106260714Y-82252857D02*
X106225000Y-82217142D01*
X106189285Y-82145714D01*
X106189285Y-81967142D01*
X106225000Y-81895714D01*
X106260714Y-81860000D01*
X106332142Y-81824285D01*
X106403571Y-81824285D01*
X106510714Y-81860000D01*
X106939285Y-82288571D01*
X106939285Y-81824285D01*
X91171428Y-87789285D02*
X91635714Y-87789285D01*
X91385714Y-88075000D01*
X91492857Y-88075000D01*
X91564285Y-88110714D01*
X91600000Y-88146428D01*
X91635714Y-88217857D01*
X91635714Y-88396428D01*
X91600000Y-88467857D01*
X91564285Y-88503571D01*
X91492857Y-88539285D01*
X91278571Y-88539285D01*
X91207142Y-88503571D01*
X91171428Y-88467857D01*
X91850000Y-87789285D02*
X92100000Y-88539285D01*
X92350000Y-87789285D01*
X92528571Y-87789285D02*
X92992857Y-87789285D01*
X92742857Y-88075000D01*
X92850000Y-88075000D01*
X92921428Y-88110714D01*
X92957142Y-88146428D01*
X92992857Y-88217857D01*
X92992857Y-88396428D01*
X92957142Y-88467857D01*
X92921428Y-88503571D01*
X92850000Y-88539285D01*
X92635714Y-88539285D01*
X92564285Y-88503571D01*
X92528571Y-88467857D01*
X96328571Y-87825000D02*
X96257142Y-87789285D01*
X96150000Y-87789285D01*
X96042857Y-87825000D01*
X95971428Y-87896428D01*
X95935714Y-87967857D01*
X95900000Y-88110714D01*
X95900000Y-88217857D01*
X95935714Y-88360714D01*
X95971428Y-88432142D01*
X96042857Y-88503571D01*
X96150000Y-88539285D01*
X96221428Y-88539285D01*
X96328571Y-88503571D01*
X96364285Y-88467857D01*
X96364285Y-88217857D01*
X96221428Y-88217857D01*
X96685714Y-88539285D02*
X96685714Y-87789285D01*
X97114285Y-88539285D01*
X97114285Y-87789285D01*
X97471428Y-88539285D02*
X97471428Y-87789285D01*
X97650000Y-87789285D01*
X97757142Y-87825000D01*
X97828571Y-87896428D01*
X97864285Y-87967857D01*
X97900000Y-88110714D01*
X97900000Y-88217857D01*
X97864285Y-88360714D01*
X97828571Y-88432142D01*
X97757142Y-88503571D01*
X97650000Y-88539285D01*
X97471428Y-88539285D01*
D12*
X73528571Y-89107142D02*
X74671428Y-89107142D01*
X74100000Y-89678571D02*
X74100000Y-88535714D01*
D11*
X106546428Y-87743571D02*
X106582142Y-87636428D01*
X106617857Y-87600714D01*
X106689285Y-87565000D01*
X106796428Y-87565000D01*
X106867857Y-87600714D01*
X106903571Y-87636428D01*
X106939285Y-87707857D01*
X106939285Y-87993571D01*
X106189285Y-87993571D01*
X106189285Y-87743571D01*
X106225000Y-87672142D01*
X106260714Y-87636428D01*
X106332142Y-87600714D01*
X106403571Y-87600714D01*
X106475000Y-87636428D01*
X106510714Y-87672142D01*
X106546428Y-87743571D01*
X106546428Y-87993571D01*
X106939285Y-86850714D02*
X106939285Y-87279285D01*
X106939285Y-87065000D02*
X106189285Y-87065000D01*
X106296428Y-87136428D01*
X106367857Y-87207857D01*
X106403571Y-87279285D01*
X106725000Y-85435714D02*
X106725000Y-85078571D01*
X106939285Y-85507142D02*
X106189285Y-85257142D01*
X106939285Y-85007142D01*
X106939285Y-84364285D02*
X106939285Y-84792857D01*
X106939285Y-84578571D02*
X106189285Y-84578571D01*
X106296428Y-84650000D01*
X106367857Y-84721428D01*
X106403571Y-84792857D01*
D12*
X74107142Y-83671428D02*
X74107142Y-82528571D01*
D14*
%TO.C,U1*%
X79073166Y-71297933D02*
X79792833Y-71297933D01*
X79877500Y-71255600D01*
X79919833Y-71213266D01*
X79962166Y-71128600D01*
X79962166Y-70959266D01*
X79919833Y-70874600D01*
X79877500Y-70832266D01*
X79792833Y-70789933D01*
X79073166Y-70789933D01*
X79962166Y-69900933D02*
X79962166Y-70408933D01*
X79962166Y-70154933D02*
X79073166Y-70154933D01*
X79200166Y-70239600D01*
X79284833Y-70324266D01*
X79327166Y-70408933D01*
D15*
X82630052Y-73846581D02*
X82659081Y-73759495D01*
X82659081Y-73614352D01*
X82630052Y-73556295D01*
X82601024Y-73527267D01*
X82542967Y-73498238D01*
X82484910Y-73498238D01*
X82426852Y-73527267D01*
X82397824Y-73556295D01*
X82368795Y-73614352D01*
X82339767Y-73730467D01*
X82310738Y-73788524D01*
X82281710Y-73817552D01*
X82223652Y-73846581D01*
X82165595Y-73846581D01*
X82107538Y-73817552D01*
X82078510Y-73788524D01*
X82049481Y-73730467D01*
X82049481Y-73585324D01*
X82078510Y-73498238D01*
X82630052Y-73004752D02*
X82659081Y-73062810D01*
X82659081Y-73178924D01*
X82630052Y-73236981D01*
X82571995Y-73266010D01*
X82339767Y-73266010D01*
X82281710Y-73236981D01*
X82252681Y-73178924D01*
X82252681Y-73062810D01*
X82281710Y-73004752D01*
X82339767Y-72975724D01*
X82397824Y-72975724D01*
X82455881Y-73266010D01*
X82630052Y-72482238D02*
X82659081Y-72540295D01*
X82659081Y-72656410D01*
X82630052Y-72714467D01*
X82571995Y-72743495D01*
X82339767Y-72743495D01*
X82281710Y-72714467D01*
X82252681Y-72656410D01*
X82252681Y-72540295D01*
X82281710Y-72482238D01*
X82339767Y-72453210D01*
X82397824Y-72453210D01*
X82455881Y-72743495D01*
X82630052Y-71959724D02*
X82659081Y-72017781D01*
X82659081Y-72133895D01*
X82630052Y-72191952D01*
X82571995Y-72220981D01*
X82339767Y-72220981D01*
X82281710Y-72191952D01*
X82252681Y-72133895D01*
X82252681Y-72017781D01*
X82281710Y-71959724D01*
X82339767Y-71930695D01*
X82397824Y-71930695D01*
X82455881Y-72220981D01*
X82659081Y-71408181D02*
X82049481Y-71408181D01*
X82630052Y-71408181D02*
X82659081Y-71466238D01*
X82659081Y-71582352D01*
X82630052Y-71640410D01*
X82601024Y-71669438D01*
X82542967Y-71698467D01*
X82368795Y-71698467D01*
X82310738Y-71669438D01*
X82281710Y-71640410D01*
X82252681Y-71582352D01*
X82252681Y-71466238D01*
X82281710Y-71408181D01*
X82252681Y-70856638D02*
X82659081Y-70856638D01*
X82252681Y-71117895D02*
X82571995Y-71117895D01*
X82630052Y-71088867D01*
X82659081Y-71030810D01*
X82659081Y-70943724D01*
X82630052Y-70885667D01*
X82601024Y-70856638D01*
X82659081Y-70566352D02*
X82252681Y-70566352D01*
X82049481Y-70566352D02*
X82078510Y-70595381D01*
X82107538Y-70566352D01*
X82078510Y-70537324D01*
X82049481Y-70566352D01*
X82107538Y-70566352D01*
X82252681Y-70276067D02*
X82659081Y-70276067D01*
X82310738Y-70276067D02*
X82281710Y-70247038D01*
X82252681Y-70188981D01*
X82252681Y-70101895D01*
X82281710Y-70043838D01*
X82339767Y-70014810D01*
X82659081Y-70014810D01*
X82659081Y-69637438D02*
X82630052Y-69695495D01*
X82601024Y-69724524D01*
X82542967Y-69753552D01*
X82368795Y-69753552D01*
X82310738Y-69724524D01*
X82281710Y-69695495D01*
X82252681Y-69637438D01*
X82252681Y-69550352D01*
X82281710Y-69492295D01*
X82310738Y-69463267D01*
X82368795Y-69434238D01*
X82542967Y-69434238D01*
X82601024Y-69463267D01*
X82630052Y-69492295D01*
X82659081Y-69550352D01*
X82659081Y-69637438D01*
X82049481Y-69231038D02*
X82659081Y-68824638D01*
X82049481Y-68824638D02*
X82659081Y-69231038D01*
X82659081Y-68592410D02*
X82049481Y-68592410D01*
X82484910Y-68331152D02*
X82484910Y-68040867D01*
X82659081Y-68389210D02*
X82049481Y-68186010D01*
X82659081Y-67982810D01*
X82049481Y-67663495D02*
X82049481Y-67547381D01*
X82078510Y-67489324D01*
X82136567Y-67431267D01*
X82252681Y-67402238D01*
X82455881Y-67402238D01*
X82571995Y-67431267D01*
X82630052Y-67489324D01*
X82659081Y-67547381D01*
X82659081Y-67663495D01*
X82630052Y-67721552D01*
X82571995Y-67779610D01*
X82455881Y-67808638D01*
X82252681Y-67808638D01*
X82136567Y-67779610D01*
X82078510Y-67721552D01*
X82049481Y-67663495D01*
D13*
%TO.C,C1*%
X94807142Y-70716666D02*
X94854761Y-70764285D01*
X94902380Y-70907142D01*
X94902380Y-71002380D01*
X94854761Y-71145238D01*
X94759523Y-71240476D01*
X94664285Y-71288095D01*
X94473809Y-71335714D01*
X94330952Y-71335714D01*
X94140476Y-71288095D01*
X94045238Y-71240476D01*
X93950000Y-71145238D01*
X93902380Y-71002380D01*
X93902380Y-70907142D01*
X93950000Y-70764285D01*
X93997619Y-70716666D01*
X94902380Y-69764285D02*
X94902380Y-70335714D01*
X94902380Y-70050000D02*
X93902380Y-70050000D01*
X94045238Y-70145238D01*
X94140476Y-70240476D01*
X94188095Y-70335714D01*
D16*
%TO.C,U2*%
X108347857Y-62168809D02*
X108347857Y-62668809D01*
X108181190Y-62311666D01*
X108014523Y-62668809D01*
X108014523Y-62168809D01*
X107800238Y-62192619D02*
X107728809Y-62168809D01*
X107609761Y-62168809D01*
X107562142Y-62192619D01*
X107538333Y-62216428D01*
X107514523Y-62264047D01*
X107514523Y-62311666D01*
X107538333Y-62359285D01*
X107562142Y-62383095D01*
X107609761Y-62406904D01*
X107705000Y-62430714D01*
X107752619Y-62454523D01*
X107776428Y-62478333D01*
X107800238Y-62525952D01*
X107800238Y-62573571D01*
X107776428Y-62621190D01*
X107752619Y-62645000D01*
X107705000Y-62668809D01*
X107585952Y-62668809D01*
X107514523Y-62645000D01*
X107347857Y-62668809D02*
X107038333Y-62668809D01*
X107205000Y-62478333D01*
X107133571Y-62478333D01*
X107085952Y-62454523D01*
X107062142Y-62430714D01*
X107038333Y-62383095D01*
X107038333Y-62264047D01*
X107062142Y-62216428D01*
X107085952Y-62192619D01*
X107133571Y-62168809D01*
X107276428Y-62168809D01*
X107324047Y-62192619D01*
X107347857Y-62216428D01*
X99997619Y-79178809D02*
X99830952Y-78678809D01*
X99664285Y-79178809D01*
X99497619Y-78678809D02*
X99497619Y-79178809D01*
X99164285Y-79178809D02*
X99069047Y-79178809D01*
X99021428Y-79155000D01*
X98973809Y-79107380D01*
X98950000Y-79012142D01*
X98950000Y-78845476D01*
X98973809Y-78750238D01*
X99021428Y-78702619D01*
X99069047Y-78678809D01*
X99164285Y-78678809D01*
X99211904Y-78702619D01*
X99259523Y-78750238D01*
X99283333Y-78845476D01*
X99283333Y-79012142D01*
X99259523Y-79107380D01*
X99211904Y-79155000D01*
X99164285Y-79178809D01*
X102349722Y-78881286D02*
X102111627Y-78881286D01*
X102397341Y-78738429D02*
X102230675Y-79238429D01*
X102064008Y-78738429D01*
X101921151Y-79190810D02*
X101897341Y-79214620D01*
X101849722Y-79238429D01*
X101730675Y-79238429D01*
X101683056Y-79214620D01*
X101659246Y-79190810D01*
X101635437Y-79143191D01*
X101635437Y-79095572D01*
X101659246Y-79024143D01*
X101944960Y-78738429D01*
X101635437Y-78738429D01*
X115059047Y-62430714D02*
X114892380Y-62430714D01*
X114820952Y-62168809D02*
X115059047Y-62168809D01*
X115059047Y-62668809D01*
X114820952Y-62668809D01*
X114606666Y-62168809D02*
X114606666Y-62668809D01*
X114320952Y-62168809D01*
X114320952Y-62668809D01*
X115594761Y-79178809D02*
X115428095Y-78678809D01*
X115261428Y-79178809D01*
X115094761Y-78678809D02*
X115094761Y-79178809D01*
X114928095Y-78821666D01*
X114761428Y-79178809D01*
X114761428Y-78678809D01*
X114428095Y-79178809D02*
X114332857Y-79178809D01*
X114285238Y-79155000D01*
X114237619Y-79107380D01*
X114213809Y-79012142D01*
X114213809Y-78845476D01*
X114237619Y-78750238D01*
X114285238Y-78702619D01*
X114332857Y-78678809D01*
X114428095Y-78678809D01*
X114475714Y-78702619D01*
X114523333Y-78750238D01*
X114547142Y-78845476D01*
X114547142Y-79012142D01*
X114523333Y-79107380D01*
X114475714Y-79155000D01*
X114428095Y-79178809D01*
X114070952Y-79178809D02*
X113785238Y-79178809D01*
X113928095Y-78678809D02*
X113928095Y-79178809D01*
X104168809Y-62168809D02*
X104335476Y-62406904D01*
X104454523Y-62168809D02*
X104454523Y-62668809D01*
X104264047Y-62668809D01*
X104216428Y-62645000D01*
X104192619Y-62621190D01*
X104168809Y-62573571D01*
X104168809Y-62502142D01*
X104192619Y-62454523D01*
X104216428Y-62430714D01*
X104264047Y-62406904D01*
X104454523Y-62406904D01*
X103978333Y-62192619D02*
X103906904Y-62168809D01*
X103787857Y-62168809D01*
X103740238Y-62192619D01*
X103716428Y-62216428D01*
X103692619Y-62264047D01*
X103692619Y-62311666D01*
X103716428Y-62359285D01*
X103740238Y-62383095D01*
X103787857Y-62406904D01*
X103883095Y-62430714D01*
X103930714Y-62454523D01*
X103954523Y-62478333D01*
X103978333Y-62525952D01*
X103978333Y-62573571D01*
X103954523Y-62621190D01*
X103930714Y-62645000D01*
X103883095Y-62668809D01*
X103764047Y-62668809D01*
X103692619Y-62645000D01*
X103549761Y-62668809D02*
X103264047Y-62668809D01*
X103406904Y-62168809D02*
X103406904Y-62668809D01*
X110252857Y-62168809D02*
X110252857Y-62668809D01*
X110086190Y-62311666D01*
X109919523Y-62668809D01*
X109919523Y-62168809D01*
X109705238Y-62192619D02*
X109633809Y-62168809D01*
X109514761Y-62168809D01*
X109467142Y-62192619D01*
X109443333Y-62216428D01*
X109419523Y-62264047D01*
X109419523Y-62311666D01*
X109443333Y-62359285D01*
X109467142Y-62383095D01*
X109514761Y-62406904D01*
X109610000Y-62430714D01*
X109657619Y-62454523D01*
X109681428Y-62478333D01*
X109705238Y-62525952D01*
X109705238Y-62573571D01*
X109681428Y-62621190D01*
X109657619Y-62645000D01*
X109610000Y-62668809D01*
X109490952Y-62668809D01*
X109419523Y-62645000D01*
X109229047Y-62621190D02*
X109205238Y-62645000D01*
X109157619Y-62668809D01*
X109038571Y-62668809D01*
X108990952Y-62645000D01*
X108967142Y-62621190D01*
X108943333Y-62573571D01*
X108943333Y-62525952D01*
X108967142Y-62454523D01*
X109252857Y-62168809D01*
X108943333Y-62168809D01*
X100033333Y-62192619D02*
X99961904Y-62168809D01*
X99842857Y-62168809D01*
X99795238Y-62192619D01*
X99771428Y-62216428D01*
X99747619Y-62264047D01*
X99747619Y-62311666D01*
X99771428Y-62359285D01*
X99795238Y-62383095D01*
X99842857Y-62406904D01*
X99938095Y-62430714D01*
X99985714Y-62454523D01*
X100009523Y-62478333D01*
X100033333Y-62525952D01*
X100033333Y-62573571D01*
X100009523Y-62621190D01*
X99985714Y-62645000D01*
X99938095Y-62668809D01*
X99819047Y-62668809D01*
X99747619Y-62645000D01*
X99604761Y-62668809D02*
X99319047Y-62668809D01*
X99461904Y-62168809D02*
X99461904Y-62668809D01*
X99152380Y-62168809D02*
X99152380Y-62668809D01*
X98961904Y-62668809D01*
X98914285Y-62645000D01*
X98890476Y-62621190D01*
X98866666Y-62573571D01*
X98866666Y-62502142D01*
X98890476Y-62454523D01*
X98914285Y-62430714D01*
X98961904Y-62406904D01*
X99152380Y-62406904D01*
X102585238Y-62192619D02*
X102513809Y-62168809D01*
X102394761Y-62168809D01*
X102347142Y-62192619D01*
X102323333Y-62216428D01*
X102299523Y-62264047D01*
X102299523Y-62311666D01*
X102323333Y-62359285D01*
X102347142Y-62383095D01*
X102394761Y-62406904D01*
X102490000Y-62430714D01*
X102537619Y-62454523D01*
X102561428Y-62478333D01*
X102585238Y-62525952D01*
X102585238Y-62573571D01*
X102561428Y-62621190D01*
X102537619Y-62645000D01*
X102490000Y-62668809D01*
X102370952Y-62668809D01*
X102299523Y-62645000D01*
X101847142Y-62168809D02*
X102085238Y-62168809D01*
X102085238Y-62668809D01*
X101680476Y-62168809D02*
X101680476Y-62668809D01*
X101490000Y-62668809D01*
X101442380Y-62645000D01*
X101418571Y-62621190D01*
X101394761Y-62573571D01*
X101394761Y-62502142D01*
X101418571Y-62454523D01*
X101442380Y-62430714D01*
X101490000Y-62406904D01*
X101680476Y-62406904D01*
X97290952Y-79155000D02*
X97338571Y-79178809D01*
X97410000Y-79178809D01*
X97481428Y-79155000D01*
X97529047Y-79107380D01*
X97552857Y-79059761D01*
X97576666Y-78964523D01*
X97576666Y-78893095D01*
X97552857Y-78797857D01*
X97529047Y-78750238D01*
X97481428Y-78702619D01*
X97410000Y-78678809D01*
X97362380Y-78678809D01*
X97290952Y-78702619D01*
X97267142Y-78726428D01*
X97267142Y-78893095D01*
X97362380Y-78893095D01*
X97052857Y-78678809D02*
X97052857Y-79178809D01*
X96767142Y-78678809D01*
X96767142Y-79178809D01*
X96529047Y-78678809D02*
X96529047Y-79178809D01*
X96410000Y-79178809D01*
X96338571Y-79155000D01*
X96290952Y-79107380D01*
X96267142Y-79059761D01*
X96243333Y-78964523D01*
X96243333Y-78893095D01*
X96267142Y-78797857D01*
X96290952Y-78750238D01*
X96338571Y-78702619D01*
X96410000Y-78678809D01*
X96529047Y-78678809D01*
X107907380Y-78940714D02*
X107835952Y-78916904D01*
X107812142Y-78893095D01*
X107788333Y-78845476D01*
X107788333Y-78774047D01*
X107812142Y-78726428D01*
X107835952Y-78702619D01*
X107883571Y-78678809D01*
X108074047Y-78678809D01*
X108074047Y-79178809D01*
X107907380Y-79178809D01*
X107859761Y-79155000D01*
X107835952Y-79131190D01*
X107812142Y-79083571D01*
X107812142Y-79035952D01*
X107835952Y-78988333D01*
X107859761Y-78964523D01*
X107907380Y-78940714D01*
X108074047Y-78940714D01*
X107312142Y-78678809D02*
X107597857Y-78678809D01*
X107455000Y-78678809D02*
X107455000Y-79178809D01*
X107502619Y-79107380D01*
X107550238Y-79059761D01*
X107597857Y-79035952D01*
X112792857Y-62168809D02*
X112792857Y-62668809D01*
X112626190Y-62311666D01*
X112459523Y-62668809D01*
X112459523Y-62168809D01*
X112245238Y-62192619D02*
X112173809Y-62168809D01*
X112054761Y-62168809D01*
X112007142Y-62192619D01*
X111983333Y-62216428D01*
X111959523Y-62264047D01*
X111959523Y-62311666D01*
X111983333Y-62359285D01*
X112007142Y-62383095D01*
X112054761Y-62406904D01*
X112150000Y-62430714D01*
X112197619Y-62454523D01*
X112221428Y-62478333D01*
X112245238Y-62525952D01*
X112245238Y-62573571D01*
X112221428Y-62621190D01*
X112197619Y-62645000D01*
X112150000Y-62668809D01*
X112030952Y-62668809D01*
X111959523Y-62645000D01*
X111483333Y-62168809D02*
X111769047Y-62168809D01*
X111626190Y-62168809D02*
X111626190Y-62668809D01*
X111673809Y-62597380D01*
X111721428Y-62549761D01*
X111769047Y-62525952D01*
X109812380Y-78940714D02*
X109740952Y-78916904D01*
X109717142Y-78893095D01*
X109693333Y-78845476D01*
X109693333Y-78774047D01*
X109717142Y-78726428D01*
X109740952Y-78702619D01*
X109788571Y-78678809D01*
X109979047Y-78678809D01*
X109979047Y-79178809D01*
X109812380Y-79178809D01*
X109764761Y-79155000D01*
X109740952Y-79131190D01*
X109717142Y-79083571D01*
X109717142Y-79035952D01*
X109740952Y-78988333D01*
X109764761Y-78964523D01*
X109812380Y-78940714D01*
X109979047Y-78940714D01*
X109502857Y-79131190D02*
X109479047Y-79155000D01*
X109431428Y-79178809D01*
X109312380Y-79178809D01*
X109264761Y-79155000D01*
X109240952Y-79131190D01*
X109217142Y-79083571D01*
X109217142Y-79035952D01*
X109240952Y-78964523D01*
X109526666Y-78678809D01*
X109217142Y-78678809D01*
X104252142Y-78821666D02*
X104014047Y-78821666D01*
X104299761Y-78678809D02*
X104133095Y-79178809D01*
X103966428Y-78678809D01*
X103537857Y-78678809D02*
X103823571Y-78678809D01*
X103680714Y-78678809D02*
X103680714Y-79178809D01*
X103728333Y-79107380D01*
X103775952Y-79059761D01*
X103823571Y-79035952D01*
X97410000Y-62168809D02*
X97410000Y-62668809D01*
X97290952Y-62668809D01*
X97219523Y-62645000D01*
X97171904Y-62597380D01*
X97148095Y-62549761D01*
X97124285Y-62454523D01*
X97124285Y-62383095D01*
X97148095Y-62287857D01*
X97171904Y-62240238D01*
X97219523Y-62192619D01*
X97290952Y-62168809D01*
X97410000Y-62168809D01*
X96910000Y-62168809D02*
X96910000Y-62668809D01*
X96386190Y-62168809D02*
X96552857Y-62406904D01*
X96671904Y-62168809D02*
X96671904Y-62668809D01*
X96481428Y-62668809D01*
X96433809Y-62645000D01*
X96410000Y-62621190D01*
X96386190Y-62573571D01*
X96386190Y-62502142D01*
X96410000Y-62454523D01*
X96433809Y-62430714D01*
X96481428Y-62406904D01*
X96671904Y-62406904D01*
X112530952Y-79155000D02*
X112578571Y-79178809D01*
X112650000Y-79178809D01*
X112721428Y-79155000D01*
X112769047Y-79107380D01*
X112792857Y-79059761D01*
X112816666Y-78964523D01*
X112816666Y-78893095D01*
X112792857Y-78797857D01*
X112769047Y-78750238D01*
X112721428Y-78702619D01*
X112650000Y-78678809D01*
X112602380Y-78678809D01*
X112530952Y-78702619D01*
X112507142Y-78726428D01*
X112507142Y-78893095D01*
X112602380Y-78893095D01*
X112292857Y-78678809D02*
X112292857Y-79178809D01*
X112007142Y-78678809D01*
X112007142Y-79178809D01*
X111769047Y-78678809D02*
X111769047Y-79178809D01*
X111650000Y-79178809D01*
X111578571Y-79155000D01*
X111530952Y-79107380D01*
X111507142Y-79059761D01*
X111483333Y-78964523D01*
X111483333Y-78893095D01*
X111507142Y-78797857D01*
X111530952Y-78750238D01*
X111578571Y-78702619D01*
X111650000Y-78678809D01*
X111769047Y-78678809D01*
D17*
%TO.C,U1*%
X74763310Y-74053410D02*
X72096310Y-74053410D01*
X76160310Y-75831410D02*
X76160310Y-74053410D01*
D18*
X93178310Y-79514410D02*
X93178310Y-61716630D01*
X72180130Y-61716630D02*
X72180130Y-78843850D01*
D17*
X78829850Y-67195410D02*
X76160310Y-67195410D01*
X75398310Y-73164410D02*
X75398310Y-68084410D01*
X78829850Y-67195410D02*
X78829850Y-65417410D01*
X75398310Y-73164410D02*
X72858310Y-73164410D01*
D18*
X93178310Y-61716630D02*
X72180130Y-61716630D01*
D17*
X74763310Y-67195410D02*
X72096310Y-67195410D01*
X76160310Y-67195410D02*
X76160310Y-65417410D01*
X75398310Y-68084410D02*
X72858310Y-68084410D01*
X92543310Y-73164410D02*
X92543310Y-67449410D01*
X90003310Y-73164410D02*
X90003310Y-67449410D01*
X92543310Y-73164410D02*
X90003310Y-73164410D01*
X78829850Y-74053410D02*
X76160310Y-74053410D01*
X74763310Y-65417410D02*
X72096310Y-65417410D01*
X92543310Y-67449410D02*
X90003310Y-67449410D01*
X78829850Y-65417410D02*
X76160310Y-65417410D01*
X72096310Y-75831410D02*
X72096310Y-74053410D01*
X74763310Y-75831410D02*
X72096310Y-75831410D01*
X78829850Y-75831410D02*
X78829850Y-74053410D01*
D18*
X78108490Y-75120210D02*
X70755190Y-75120210D01*
D17*
X72858310Y-73164410D02*
X72858310Y-68084410D01*
D18*
X72850690Y-79514410D02*
X93178310Y-79514410D01*
X70755190Y-75115130D02*
X70755190Y-66120990D01*
D17*
X78829850Y-75831410D02*
X76160310Y-75831410D01*
X74763310Y-67195410D02*
X74763310Y-65417410D01*
D18*
X78108490Y-66120990D02*
X78108490Y-75120210D01*
D17*
X72096310Y-67195410D02*
X72096310Y-65417410D01*
D18*
X72180130Y-78843850D02*
X72850690Y-79514410D01*
D17*
X74763310Y-75831410D02*
X74763310Y-74053410D01*
D18*
X70755190Y-66120990D02*
X78108490Y-66120990D01*
D19*
X75144310Y-80403410D02*
G75*
G03*
X75144310Y-80403410I-127000J0D01*
G01*
D20*
%TO.C,J2*%
X99750000Y-80765000D02*
X99750000Y-91626000D01*
X99630000Y-80525000D02*
X98990000Y-80525000D01*
X105970000Y-80765000D02*
X105970000Y-91626000D01*
X98990000Y-80525000D02*
X98990000Y-80925000D01*
X104850000Y-80765000D02*
X104850000Y-91626000D01*
X105970000Y-91626000D02*
X99230000Y-91626000D01*
X99230000Y-80765000D02*
X99230000Y-91626000D01*
X105970000Y-80765000D02*
X99230000Y-80765000D01*
%TO.C,J3*%
X90140000Y-80630000D02*
X98460000Y-80630000D01*
X98460000Y-80630000D02*
X98460000Y-87370000D01*
X89900000Y-86970000D02*
X89900000Y-87610000D01*
X90140000Y-81750000D02*
X98460000Y-81750000D01*
X90140000Y-86850000D02*
X98460000Y-86850000D01*
X90140000Y-80630000D02*
X90140000Y-87370000D01*
X89900000Y-87610000D02*
X90300000Y-87610000D01*
X90140000Y-87370000D02*
X98460000Y-87370000D01*
%TO.C,C1*%
X103340000Y-67869000D02*
X105023000Y-67869000D01*
X97353000Y-66709000D02*
X104047000Y-66709000D01*
X98190000Y-66109000D02*
X103210000Y-66109000D01*
X95689000Y-69709000D02*
X99660000Y-69709000D01*
X103340000Y-67749000D02*
X104947000Y-67749000D01*
X103340000Y-68749000D02*
X105454000Y-68749000D01*
X98756000Y-65829000D02*
X102644000Y-65829000D01*
X103340000Y-67949000D02*
X105071000Y-67949000D01*
X103340000Y-68109000D02*
X105162000Y-68109000D01*
X103340000Y-68389000D02*
X105303000Y-68389000D01*
X95665000Y-69870000D02*
X99660000Y-69870000D01*
X95735000Y-69469000D02*
X99660000Y-69469000D01*
X101740000Y-69990000D02*
X105750000Y-69990000D01*
X95642000Y-70070000D02*
X99660000Y-70070000D01*
X103340000Y-67629000D02*
X104866000Y-67629000D01*
X96402000Y-67829000D02*
X101260000Y-67829000D01*
X95650000Y-69990000D02*
X99660000Y-69990000D01*
X96506000Y-67669000D02*
X101260000Y-67669000D01*
X98491000Y-65949000D02*
X102909000Y-65949000D01*
X97446000Y-66629000D02*
X103954000Y-66629000D01*
X96650000Y-67469000D02*
X104750000Y-67469000D01*
X103340000Y-68469000D02*
X105339000Y-68469000D01*
X103340000Y-67989000D02*
X105095000Y-67989000D01*
X101740000Y-70030000D02*
X105754000Y-70030000D01*
X97399000Y-66669000D02*
X104001000Y-66669000D01*
X95932000Y-68789000D02*
X99660000Y-68789000D01*
X96238000Y-68109000D02*
X101260000Y-68109000D01*
X95782000Y-69269000D02*
X99660000Y-69269000D01*
X103340000Y-68669000D02*
X105423000Y-68669000D01*
X94985000Y-73570000D02*
X94985000Y-72570000D01*
X97180000Y-66869000D02*
X104220000Y-66869000D01*
X103340000Y-68549000D02*
X105374000Y-68549000D01*
X98261000Y-66069000D02*
X103139000Y-66069000D01*
X103340000Y-68069000D02*
X105140000Y-68069000D01*
X96155000Y-68269000D02*
X99660000Y-68269000D01*
X96283000Y-68029000D02*
X101260000Y-68029000D01*
X103340000Y-67829000D02*
X104998000Y-67829000D01*
X97264000Y-66789000D02*
X104136000Y-66789000D01*
X103340000Y-68629000D02*
X105407000Y-68629000D01*
X95703000Y-69629000D02*
X99660000Y-69629000D01*
X95646000Y-70030000D02*
X99660000Y-70030000D01*
X101740000Y-70270000D02*
X105773000Y-70270000D01*
X103340000Y-68269000D02*
X105245000Y-68269000D01*
X98121000Y-66149000D02*
X103279000Y-66149000D01*
X97930000Y-66269000D02*
X103470000Y-66269000D01*
X98854000Y-65789000D02*
X102546000Y-65789000D01*
X96116000Y-68349000D02*
X99660000Y-68349000D01*
X103340000Y-69509000D02*
X105674000Y-69509000D01*
X96329000Y-67949000D02*
X101260000Y-67949000D01*
X95635000Y-70150000D02*
X99660000Y-70150000D01*
X96479000Y-67709000D02*
X101260000Y-67709000D01*
X103340000Y-69109000D02*
X105574000Y-69109000D01*
X95632000Y-70190000D02*
X99660000Y-70190000D01*
X101740000Y-69829000D02*
X105730000Y-69829000D01*
X96984000Y-67069000D02*
X104416000Y-67069000D01*
X96876000Y-67189000D02*
X104524000Y-67189000D01*
X95772000Y-69309000D02*
X99660000Y-69309000D01*
X97099000Y-66949000D02*
X104301000Y-66949000D01*
X97222000Y-66829000D02*
X104178000Y-66829000D01*
X96097000Y-68389000D02*
X99660000Y-68389000D01*
X96377000Y-67869000D02*
X101260000Y-67869000D01*
X96061000Y-68469000D02*
X99660000Y-68469000D01*
X99470000Y-65589000D02*
X101930000Y-65589000D01*
X99322000Y-65629000D02*
X102078000Y-65629000D01*
X103340000Y-67669000D02*
X104894000Y-67669000D01*
X97646000Y-66469000D02*
X103754000Y-66469000D01*
X95826000Y-69109000D02*
X99660000Y-69109000D01*
X96947000Y-67109000D02*
X104453000Y-67109000D01*
X103340000Y-69229000D02*
X105607000Y-69229000D01*
X95993000Y-68629000D02*
X99660000Y-68629000D01*
X103340000Y-68509000D02*
X105357000Y-68509000D01*
X103340000Y-68829000D02*
X105483000Y-68829000D01*
X103340000Y-68869000D02*
X105497000Y-68869000D01*
X99638000Y-65549000D02*
X101762000Y-65549000D01*
X101740000Y-69870000D02*
X105735000Y-69870000D01*
X99190000Y-65669000D02*
X102210000Y-65669000D01*
X95946000Y-68749000D02*
X99660000Y-68749000D01*
X95620000Y-70510000D02*
X105780000Y-70510000D01*
X103340000Y-69389000D02*
X105647000Y-69389000D01*
X99070000Y-65709000D02*
X102330000Y-65709000D01*
X98575000Y-65909000D02*
X102825000Y-65909000D01*
X96743000Y-67349000D02*
X104657000Y-67349000D01*
X94485000Y-73070000D02*
X95485000Y-73070000D01*
X101740000Y-69789000D02*
X105724000Y-69789000D01*
X103340000Y-68989000D02*
X105537000Y-68989000D01*
X96136000Y-68309000D02*
X99660000Y-68309000D01*
X96217000Y-68149000D02*
X101260000Y-68149000D01*
X99838000Y-65509000D02*
X101562000Y-65509000D01*
X95762000Y-69349000D02*
X99660000Y-69349000D01*
X103340000Y-69069000D02*
X105562000Y-69069000D01*
X95682000Y-69749000D02*
X99660000Y-69749000D01*
X103340000Y-67589000D02*
X104838000Y-67589000D01*
X97594000Y-66509000D02*
X103806000Y-66509000D01*
X97870000Y-66309000D02*
X103530000Y-66309000D01*
X95620000Y-70470000D02*
X105780000Y-70470000D01*
X95623000Y-70350000D02*
X105777000Y-70350000D01*
X103340000Y-69629000D02*
X105697000Y-69629000D01*
X96590000Y-67549000D02*
X104810000Y-67549000D01*
X103340000Y-68789000D02*
X105468000Y-68789000D01*
X95917000Y-68829000D02*
X99660000Y-68829000D01*
X97755000Y-66389000D02*
X103645000Y-66389000D01*
X97811000Y-66349000D02*
X103589000Y-66349000D01*
X95622000Y-70390000D02*
X105778000Y-70390000D01*
X95676000Y-69789000D02*
X99660000Y-69789000D01*
X95803000Y-69189000D02*
X99660000Y-69189000D01*
X101740000Y-69669000D02*
X105704000Y-69669000D01*
X103340000Y-69029000D02*
X105550000Y-69029000D01*
X101740000Y-70190000D02*
X105768000Y-70190000D01*
X101740000Y-69709000D02*
X105711000Y-69709000D01*
X103340000Y-68149000D02*
X105183000Y-68149000D01*
X95889000Y-68909000D02*
X99660000Y-68909000D01*
X97700000Y-66429000D02*
X103700000Y-66429000D01*
X103340000Y-68229000D02*
X105225000Y-68229000D01*
X103340000Y-69589000D02*
X105690000Y-69589000D01*
X96911000Y-67149000D02*
X104489000Y-67149000D01*
X96043000Y-68509000D02*
X99660000Y-68509000D01*
X96775000Y-67309000D02*
X104625000Y-67309000D01*
X103340000Y-68309000D02*
X105264000Y-68309000D01*
X103340000Y-68029000D02*
X105117000Y-68029000D01*
X103340000Y-69189000D02*
X105597000Y-69189000D01*
X103340000Y-68189000D02*
X105204000Y-68189000D01*
X97991000Y-66229000D02*
X103409000Y-66229000D01*
X95850000Y-69029000D02*
X99660000Y-69029000D01*
X97139000Y-66909000D02*
X104261000Y-66909000D01*
X103340000Y-67709000D02*
X104921000Y-67709000D01*
X95718000Y-69549000D02*
X99660000Y-69549000D01*
X96305000Y-67989000D02*
X101260000Y-67989000D01*
X97494000Y-66589000D02*
X103906000Y-66589000D01*
X101740000Y-69950000D02*
X105745000Y-69950000D01*
X103340000Y-67789000D02*
X104973000Y-67789000D01*
X95696000Y-69669000D02*
X99660000Y-69669000D01*
X103340000Y-69269000D02*
X105618000Y-69269000D01*
X103340000Y-69469000D02*
X105665000Y-69469000D01*
X95876000Y-68949000D02*
X99660000Y-68949000D01*
X98663000Y-65869000D02*
X102737000Y-65869000D01*
X95863000Y-68989000D02*
X99660000Y-68989000D01*
X95744000Y-69429000D02*
X99660000Y-69429000D01*
X96842000Y-67229000D02*
X104558000Y-67229000D01*
X96680000Y-67429000D02*
X104720000Y-67429000D01*
X96534000Y-67629000D02*
X101260000Y-67629000D01*
X95815000Y-69149000D02*
X99660000Y-69149000D01*
X101740000Y-70070000D02*
X105758000Y-70070000D01*
X97544000Y-66549000D02*
X103856000Y-66549000D01*
X96562000Y-67589000D02*
X101260000Y-67589000D01*
X95625000Y-70310000D02*
X99660000Y-70310000D01*
X95621000Y-70430000D02*
X105779000Y-70430000D01*
X95726000Y-69509000D02*
X99660000Y-69509000D01*
X95753000Y-69389000D02*
X99660000Y-69389000D01*
X96010000Y-68589000D02*
X99660000Y-68589000D01*
X95903000Y-68869000D02*
X99660000Y-68869000D01*
X103340000Y-69429000D02*
X105656000Y-69429000D01*
X96808000Y-67269000D02*
X104592000Y-67269000D01*
X95670000Y-69829000D02*
X99660000Y-69829000D01*
X96427000Y-67789000D02*
X101260000Y-67789000D01*
X95627000Y-70270000D02*
X99660000Y-70270000D01*
X96353000Y-67909000D02*
X101260000Y-67909000D01*
X95630000Y-70230000D02*
X99660000Y-70230000D01*
X95977000Y-68669000D02*
X99660000Y-68669000D01*
X98335000Y-66029000D02*
X103065000Y-66029000D01*
X103340000Y-69309000D02*
X105628000Y-69309000D01*
X96026000Y-68549000D02*
X99660000Y-68549000D01*
X103340000Y-68589000D02*
X105390000Y-68589000D01*
X101740000Y-69749000D02*
X105718000Y-69749000D01*
X95962000Y-68709000D02*
X99660000Y-68709000D01*
X96079000Y-68429000D02*
X99660000Y-68429000D01*
X103340000Y-69349000D02*
X105638000Y-69349000D01*
X95660000Y-69910000D02*
X99660000Y-69910000D01*
X96453000Y-67749000D02*
X101260000Y-67749000D01*
X98055000Y-66189000D02*
X103345000Y-66189000D01*
X101740000Y-69910000D02*
X105740000Y-69910000D01*
X96175000Y-68229000D02*
X101260000Y-68229000D01*
X100101000Y-65469000D02*
X101299000Y-65469000D01*
X103340000Y-69149000D02*
X105585000Y-69149000D01*
X96196000Y-68189000D02*
X101260000Y-68189000D01*
X101740000Y-70310000D02*
X105775000Y-70310000D01*
X95620000Y-70550000D02*
X105780000Y-70550000D01*
X96711000Y-67389000D02*
X104689000Y-67389000D01*
X97308000Y-66749000D02*
X104092000Y-66749000D01*
X97060000Y-66989000D02*
X104340000Y-66989000D01*
X103340000Y-68949000D02*
X105524000Y-68949000D01*
X101740000Y-70150000D02*
X105765000Y-70150000D01*
X103340000Y-68709000D02*
X105438000Y-68709000D01*
X96620000Y-67509000D02*
X104780000Y-67509000D01*
X95838000Y-69069000D02*
X99660000Y-69069000D01*
X98958000Y-65749000D02*
X102442000Y-65749000D01*
X103340000Y-69549000D02*
X105682000Y-69549000D01*
X103340000Y-68909000D02*
X105511000Y-68909000D01*
X95793000Y-69229000D02*
X99660000Y-69229000D01*
X101740000Y-70110000D02*
X105762000Y-70110000D01*
X97021000Y-67029000D02*
X104379000Y-67029000D01*
X103340000Y-68429000D02*
X105321000Y-68429000D01*
X103340000Y-68349000D02*
X105284000Y-68349000D01*
X95655000Y-69950000D02*
X99660000Y-69950000D01*
X103340000Y-67909000D02*
X105047000Y-67909000D01*
X98411000Y-65989000D02*
X102989000Y-65989000D01*
X95638000Y-70110000D02*
X99660000Y-70110000D01*
X96260000Y-68069000D02*
X101260000Y-68069000D01*
X95710000Y-69589000D02*
X99660000Y-69589000D01*
X101740000Y-70230000D02*
X105770000Y-70230000D01*
X105820000Y-70550000D02*
G75*
G03*
X105820000Y-70550000I-5120000J0D01*
G01*
D13*
%TO.C,REF\u002A\u002A*%
X74125000Y-86100000D02*
X74125000Y-88100000D01*
X74125000Y-84100000D02*
X74125000Y-85000000D01*
X74875000Y-86775000D02*
G75*
G03*
X73450000Y-86850000I-750000J675000D01*
G01*
D21*
X74300000Y-86100000D02*
G75*
G03*
X74300000Y-86100000I-175000J0D01*
G01*
D13*
X75050000Y-89100000D02*
G75*
G03*
X75050000Y-89100000I-925000J0D01*
G01*
X75050000Y-83100000D02*
G75*
G03*
X75050000Y-83100000I-925000J0D01*
G01*
D20*
%TO.C,U2*%
X117230000Y-61760000D02*
X94370000Y-61760000D01*
X115960000Y-75665000D02*
X95640000Y-75665000D01*
X104530000Y-79540000D02*
X104530000Y-78270000D01*
X95640000Y-65505000D02*
X95640000Y-63600000D01*
X107070000Y-78270000D02*
X107070000Y-79540000D01*
X106816000Y-63030000D02*
X104784000Y-63030000D01*
X95640000Y-78205000D02*
X95640000Y-75665000D01*
X115960000Y-78205000D02*
X115960000Y-75665000D01*
X115960000Y-65505000D02*
X115960000Y-62965000D01*
X104530000Y-78270000D02*
X107070000Y-78270000D01*
X115960000Y-65505000D02*
X95640000Y-65505000D01*
X106816000Y-63030000D02*
X106816000Y-61760000D01*
X104784000Y-63030000D02*
X104784000Y-61760000D01*
X94370000Y-79540000D02*
X117230000Y-79540000D01*
%TO.C,J1*%
X70500000Y-81500000D02*
X85000000Y-81500000D01*
X85300000Y-82900000D02*
X85300000Y-81200000D01*
X85000000Y-90700000D02*
X83700000Y-90700000D01*
X85300000Y-81200000D02*
X84000000Y-81200000D01*
X70500000Y-90700000D02*
X70500000Y-81500000D01*
X85000000Y-88700000D02*
X85000000Y-90700000D01*
X85000000Y-81500000D02*
X85000000Y-83500000D01*
X79100000Y-90700000D02*
X70500000Y-90700000D01*
%TD*%
M02*
