%TF.GenerationSoftware,KiCad,Pcbnew,(6.0.9)*%
%TF.CreationDate,2023-09-21T20:23:23+02:00*%
%TF.ProjectId,EZFocus,455a466f-6375-4732-9e6b-696361645f70,rev?*%
%TF.SameCoordinates,Original*%
%TF.FileFunction,Soldermask,Bot*%
%TF.FilePolarity,Negative*%
%FSLAX46Y46*%
G04 Gerber Fmt 4.6, Leading zero omitted, Abs format (unit mm)*
G04 Created by KiCad (PCBNEW (6.0.9)) date 2023-09-21 20:23:23*
%MOMM*%
%LPD*%
G01*
G04 APERTURE LIST*
%TA.AperFunction,Profile*%
%ADD10C,0.100000*%
%TD*%
%ADD11C,0.010000*%
%ADD12R,2.100000X2.100000*%
%ADD13C,2.100000*%
%ADD14C,0.700000*%
%ADD15C,4.400000*%
%ADD16R,1.600000X1.600000*%
%ADD17C,1.600000*%
%ADD18C,1.700000*%
%ADD19R,2.000000X4.600000*%
%ADD20O,2.000000X4.200000*%
%ADD21O,4.200000X2.000000*%
G04 APERTURE END LIST*
D10*
X118000000Y-90000000D02*
X118000000Y-63000000D01*
X75000000Y-93000000D02*
X115000000Y-93000000D01*
X75000000Y-60000000D02*
G75*
G03*
X72000000Y-63000000I0J-3000000D01*
G01*
X118000000Y-63000000D02*
G75*
G03*
X115000000Y-60000000I-3000000J0D01*
G01*
X72000000Y-90000000D02*
G75*
G03*
X75000000Y-93000000I3000000J0D01*
G01*
X115000000Y-60000000D02*
X75000000Y-60000000D01*
X72000000Y-63000000D02*
X72000000Y-90000000D01*
X115000000Y-93000000D02*
G75*
G03*
X118000000Y-90000000I0J3000000D01*
G01*
%TO.C,REF\u002A\u002A*%
G36*
X110294429Y-81518059D02*
G01*
X110378250Y-81962683D01*
X110687535Y-82090181D01*
X110996821Y-82217679D01*
X111367861Y-81965374D01*
X111471772Y-81895124D01*
X111565702Y-81832400D01*
X111645267Y-81780066D01*
X111706085Y-81740985D01*
X111743772Y-81718021D01*
X111754036Y-81713070D01*
X111772525Y-81725804D01*
X111812035Y-81761010D01*
X111868137Y-81814190D01*
X111936402Y-81880846D01*
X112012401Y-81956482D01*
X112091707Y-82036600D01*
X112169890Y-82116702D01*
X112242522Y-82192292D01*
X112305174Y-82258873D01*
X112353418Y-82311946D01*
X112382825Y-82347015D01*
X112389856Y-82358751D01*
X112379738Y-82380388D01*
X112351374Y-82427790D01*
X112307744Y-82496321D01*
X112251833Y-82581343D01*
X112186621Y-82678221D01*
X112148834Y-82733478D01*
X112079958Y-82834376D01*
X112018755Y-82925427D01*
X111968193Y-83002098D01*
X111931243Y-83059856D01*
X111910873Y-83094171D01*
X111907812Y-83101382D01*
X111914751Y-83121876D01*
X111933666Y-83169641D01*
X111961702Y-83237960D01*
X111996006Y-83320117D01*
X112033724Y-83409398D01*
X112072002Y-83499086D01*
X112107985Y-83582466D01*
X112138821Y-83652822D01*
X112161654Y-83703438D01*
X112173632Y-83727599D01*
X112174339Y-83728550D01*
X112193146Y-83733164D01*
X112243233Y-83743456D01*
X112319408Y-83758415D01*
X112416480Y-83777029D01*
X112529258Y-83798287D01*
X112595057Y-83810546D01*
X112715565Y-83833490D01*
X112824412Y-83855323D01*
X112916091Y-83874850D01*
X112985096Y-83890876D01*
X113025919Y-83902207D01*
X113034126Y-83905802D01*
X113042163Y-83930134D01*
X113048648Y-83985087D01*
X113053585Y-84064236D01*
X113056979Y-84161154D01*
X113058833Y-84269415D01*
X113059153Y-84382593D01*
X113057942Y-84494263D01*
X113055205Y-84597996D01*
X113050946Y-84687369D01*
X113045170Y-84755954D01*
X113037882Y-84797325D01*
X113033510Y-84805938D01*
X113007379Y-84816261D01*
X112952008Y-84831020D01*
X112874722Y-84848480D01*
X112782845Y-84866908D01*
X112750773Y-84872869D01*
X112596139Y-84901194D01*
X112473990Y-84924004D01*
X112380288Y-84942208D01*
X112310999Y-84956711D01*
X112262086Y-84968420D01*
X112229512Y-84978243D01*
X112209243Y-84987084D01*
X112197241Y-84995852D01*
X112195562Y-84997585D01*
X112178799Y-85025499D01*
X112153229Y-85079823D01*
X112121403Y-85153905D01*
X112085875Y-85241093D01*
X112049198Y-85334736D01*
X112013926Y-85428180D01*
X111982611Y-85514775D01*
X111957808Y-85587868D01*
X111942069Y-85640806D01*
X111937947Y-85666939D01*
X111938291Y-85667854D01*
X111952256Y-85689214D01*
X111983937Y-85736212D01*
X112030006Y-85803955D01*
X112087133Y-85887551D01*
X112151988Y-85982110D01*
X112170458Y-86008982D01*
X112236314Y-86106403D01*
X112294265Y-86195291D01*
X112341153Y-86270540D01*
X112373822Y-86327048D01*
X112389115Y-86359709D01*
X112389856Y-86363721D01*
X112377007Y-86384812D01*
X112341503Y-86426592D01*
X112287908Y-86484573D01*
X112220786Y-86554263D01*
X112144702Y-86631173D01*
X112064219Y-86710811D01*
X111983902Y-86788689D01*
X111908314Y-86860314D01*
X111842020Y-86921198D01*
X111789584Y-86966849D01*
X111755570Y-86992778D01*
X111746160Y-86997011D01*
X111724258Y-86987040D01*
X111679415Y-86960148D01*
X111618936Y-86920864D01*
X111572404Y-86889245D01*
X111488090Y-86831226D01*
X111388241Y-86762912D01*
X111288088Y-86694707D01*
X111234242Y-86658203D01*
X111051986Y-86534928D01*
X110898996Y-86617648D01*
X110829297Y-86653887D01*
X110770029Y-86682054D01*
X110729926Y-86698119D01*
X110719718Y-86700354D01*
X110707444Y-86683850D01*
X110683228Y-86637210D01*
X110648878Y-86564737D01*
X110606203Y-86470734D01*
X110557009Y-86359502D01*
X110503105Y-86235343D01*
X110446299Y-86102560D01*
X110388397Y-85965455D01*
X110331208Y-85828330D01*
X110276539Y-85695486D01*
X110226199Y-85571226D01*
X110181995Y-85459853D01*
X110145734Y-85365667D01*
X110119224Y-85292972D01*
X110104273Y-85246069D01*
X110101869Y-85229961D01*
X110120926Y-85209414D01*
X110162651Y-85176061D01*
X110218321Y-85136830D01*
X110222993Y-85133727D01*
X110366879Y-85018551D01*
X110482898Y-84884181D01*
X110570045Y-84734912D01*
X110627314Y-84575041D01*
X110653701Y-84408865D01*
X110648200Y-84240680D01*
X110609805Y-84074783D01*
X110537510Y-83915470D01*
X110516241Y-83880615D01*
X110405611Y-83739865D01*
X110274917Y-83626842D01*
X110128679Y-83542131D01*
X109971423Y-83486322D01*
X109807672Y-83460002D01*
X109641948Y-83463758D01*
X109478777Y-83498178D01*
X109322680Y-83563851D01*
X109178182Y-83661363D01*
X109133484Y-83700941D01*
X109019727Y-83824831D01*
X108936833Y-83955252D01*
X108879971Y-84101443D01*
X108848302Y-84246216D01*
X108840484Y-84408988D01*
X108866553Y-84572568D01*
X108923860Y-84731426D01*
X109009759Y-84880034D01*
X109121601Y-85012863D01*
X109256738Y-85124384D01*
X109274498Y-85136139D01*
X109330765Y-85174636D01*
X109373538Y-85207991D01*
X109393987Y-85229288D01*
X109394284Y-85229961D01*
X109389894Y-85252999D01*
X109372491Y-85305285D01*
X109343883Y-85382518D01*
X109305880Y-85480396D01*
X109260289Y-85594619D01*
X109208918Y-85720886D01*
X109153577Y-85854895D01*
X109096073Y-85992346D01*
X109038216Y-86128936D01*
X108981813Y-86260365D01*
X108928673Y-86382333D01*
X108880605Y-86490537D01*
X108839416Y-86580677D01*
X108806916Y-86648451D01*
X108784912Y-86689558D01*
X108776051Y-86700354D01*
X108748975Y-86691947D01*
X108698312Y-86669400D01*
X108632798Y-86636741D01*
X108596774Y-86617648D01*
X108443783Y-86534928D01*
X108261527Y-86658203D01*
X108168490Y-86721356D01*
X108066630Y-86790855D01*
X107971177Y-86856293D01*
X107923365Y-86889245D01*
X107856120Y-86934401D01*
X107799179Y-86970185D01*
X107759969Y-86992066D01*
X107747234Y-86996691D01*
X107728698Y-86984213D01*
X107687674Y-86949380D01*
X107628140Y-86895806D01*
X107554073Y-86827111D01*
X107469450Y-86746909D01*
X107415930Y-86695414D01*
X107322296Y-86603414D01*
X107241374Y-86521127D01*
X107176438Y-86452073D01*
X107130757Y-86399772D01*
X107107604Y-86367744D01*
X107105383Y-86361244D01*
X107115691Y-86336522D01*
X107144176Y-86286533D01*
X107187678Y-86216340D01*
X107243038Y-86131003D01*
X107307095Y-86035584D01*
X107325312Y-86008982D01*
X107391688Y-85912295D01*
X107451237Y-85825245D01*
X107500631Y-85752723D01*
X107536540Y-85699621D01*
X107555634Y-85670831D01*
X107557479Y-85667854D01*
X107554720Y-85644910D01*
X107540077Y-85594464D01*
X107516102Y-85523169D01*
X107485349Y-85437675D01*
X107450371Y-85344635D01*
X107413722Y-85250702D01*
X107377954Y-85162527D01*
X107345621Y-85086762D01*
X107319277Y-85030059D01*
X107301473Y-84999071D01*
X107300208Y-84997585D01*
X107289321Y-84988729D01*
X107270933Y-84979971D01*
X107241009Y-84970405D01*
X107195512Y-84959124D01*
X107130406Y-84945221D01*
X107041654Y-84927791D01*
X106925222Y-84905926D01*
X106777073Y-84878719D01*
X106744997Y-84872869D01*
X106649929Y-84854502D01*
X106567050Y-84836533D01*
X106503685Y-84820697D01*
X106467157Y-84808728D01*
X106462259Y-84805938D01*
X106454188Y-84781200D01*
X106447628Y-84725918D01*
X106442582Y-84646517D01*
X106439056Y-84549424D01*
X106437054Y-84441066D01*
X106436579Y-84327868D01*
X106437638Y-84216256D01*
X106440233Y-84112657D01*
X106444369Y-84023496D01*
X106450052Y-83955200D01*
X106457284Y-83914194D01*
X106461644Y-83905802D01*
X106485917Y-83897336D01*
X106541189Y-83883563D01*
X106621953Y-83865678D01*
X106722703Y-83844876D01*
X106837932Y-83822351D01*
X106900713Y-83810546D01*
X107019828Y-83788279D01*
X107126050Y-83768107D01*
X107214188Y-83751043D01*
X107279049Y-83738097D01*
X107315441Y-83730283D01*
X107321431Y-83728550D01*
X107331554Y-83709018D01*
X107352953Y-83661971D01*
X107382776Y-83594131D01*
X107418170Y-83512219D01*
X107456283Y-83422956D01*
X107494262Y-83333063D01*
X107529255Y-83249263D01*
X107558409Y-83178275D01*
X107578872Y-83126822D01*
X107587792Y-83101625D01*
X107587958Y-83100524D01*
X107577846Y-83080647D01*
X107549498Y-83034905D01*
X107505892Y-82967845D01*
X107450009Y-82884012D01*
X107384828Y-82787954D01*
X107346936Y-82732778D01*
X107277890Y-82631609D01*
X107216565Y-82539758D01*
X107165952Y-82461872D01*
X107129044Y-82402597D01*
X107108833Y-82366579D01*
X107105914Y-82358505D01*
X107118462Y-82339712D01*
X107153152Y-82299585D01*
X107205552Y-82242621D01*
X107271231Y-82173313D01*
X107345759Y-82096159D01*
X107424702Y-82015653D01*
X107503632Y-81936291D01*
X107578115Y-81862568D01*
X107643721Y-81798980D01*
X107696019Y-81750022D01*
X107730576Y-81720189D01*
X107742137Y-81713070D01*
X107760961Y-81723081D01*
X107805984Y-81751206D01*
X107872828Y-81794582D01*
X107957116Y-81850346D01*
X108054471Y-81915634D01*
X108127908Y-81965374D01*
X108498948Y-82217679D01*
X109117520Y-81962683D01*
X109201340Y-81518059D01*
X109285161Y-81073435D01*
X110210609Y-81073435D01*
X110294429Y-81518059D01*
G37*
D11*
X110294429Y-81518059D02*
X110378250Y-81962683D01*
X110687535Y-82090181D01*
X110996821Y-82217679D01*
X111367861Y-81965374D01*
X111471772Y-81895124D01*
X111565702Y-81832400D01*
X111645267Y-81780066D01*
X111706085Y-81740985D01*
X111743772Y-81718021D01*
X111754036Y-81713070D01*
X111772525Y-81725804D01*
X111812035Y-81761010D01*
X111868137Y-81814190D01*
X111936402Y-81880846D01*
X112012401Y-81956482D01*
X112091707Y-82036600D01*
X112169890Y-82116702D01*
X112242522Y-82192292D01*
X112305174Y-82258873D01*
X112353418Y-82311946D01*
X112382825Y-82347015D01*
X112389856Y-82358751D01*
X112379738Y-82380388D01*
X112351374Y-82427790D01*
X112307744Y-82496321D01*
X112251833Y-82581343D01*
X112186621Y-82678221D01*
X112148834Y-82733478D01*
X112079958Y-82834376D01*
X112018755Y-82925427D01*
X111968193Y-83002098D01*
X111931243Y-83059856D01*
X111910873Y-83094171D01*
X111907812Y-83101382D01*
X111914751Y-83121876D01*
X111933666Y-83169641D01*
X111961702Y-83237960D01*
X111996006Y-83320117D01*
X112033724Y-83409398D01*
X112072002Y-83499086D01*
X112107985Y-83582466D01*
X112138821Y-83652822D01*
X112161654Y-83703438D01*
X112173632Y-83727599D01*
X112174339Y-83728550D01*
X112193146Y-83733164D01*
X112243233Y-83743456D01*
X112319408Y-83758415D01*
X112416480Y-83777029D01*
X112529258Y-83798287D01*
X112595057Y-83810546D01*
X112715565Y-83833490D01*
X112824412Y-83855323D01*
X112916091Y-83874850D01*
X112985096Y-83890876D01*
X113025919Y-83902207D01*
X113034126Y-83905802D01*
X113042163Y-83930134D01*
X113048648Y-83985087D01*
X113053585Y-84064236D01*
X113056979Y-84161154D01*
X113058833Y-84269415D01*
X113059153Y-84382593D01*
X113057942Y-84494263D01*
X113055205Y-84597996D01*
X113050946Y-84687369D01*
X113045170Y-84755954D01*
X113037882Y-84797325D01*
X113033510Y-84805938D01*
X113007379Y-84816261D01*
X112952008Y-84831020D01*
X112874722Y-84848480D01*
X112782845Y-84866908D01*
X112750773Y-84872869D01*
X112596139Y-84901194D01*
X112473990Y-84924004D01*
X112380288Y-84942208D01*
X112310999Y-84956711D01*
X112262086Y-84968420D01*
X112229512Y-84978243D01*
X112209243Y-84987084D01*
X112197241Y-84995852D01*
X112195562Y-84997585D01*
X112178799Y-85025499D01*
X112153229Y-85079823D01*
X112121403Y-85153905D01*
X112085875Y-85241093D01*
X112049198Y-85334736D01*
X112013926Y-85428180D01*
X111982611Y-85514775D01*
X111957808Y-85587868D01*
X111942069Y-85640806D01*
X111937947Y-85666939D01*
X111938291Y-85667854D01*
X111952256Y-85689214D01*
X111983937Y-85736212D01*
X112030006Y-85803955D01*
X112087133Y-85887551D01*
X112151988Y-85982110D01*
X112170458Y-86008982D01*
X112236314Y-86106403D01*
X112294265Y-86195291D01*
X112341153Y-86270540D01*
X112373822Y-86327048D01*
X112389115Y-86359709D01*
X112389856Y-86363721D01*
X112377007Y-86384812D01*
X112341503Y-86426592D01*
X112287908Y-86484573D01*
X112220786Y-86554263D01*
X112144702Y-86631173D01*
X112064219Y-86710811D01*
X111983902Y-86788689D01*
X111908314Y-86860314D01*
X111842020Y-86921198D01*
X111789584Y-86966849D01*
X111755570Y-86992778D01*
X111746160Y-86997011D01*
X111724258Y-86987040D01*
X111679415Y-86960148D01*
X111618936Y-86920864D01*
X111572404Y-86889245D01*
X111488090Y-86831226D01*
X111388241Y-86762912D01*
X111288088Y-86694707D01*
X111234242Y-86658203D01*
X111051986Y-86534928D01*
X110898996Y-86617648D01*
X110829297Y-86653887D01*
X110770029Y-86682054D01*
X110729926Y-86698119D01*
X110719718Y-86700354D01*
X110707444Y-86683850D01*
X110683228Y-86637210D01*
X110648878Y-86564737D01*
X110606203Y-86470734D01*
X110557009Y-86359502D01*
X110503105Y-86235343D01*
X110446299Y-86102560D01*
X110388397Y-85965455D01*
X110331208Y-85828330D01*
X110276539Y-85695486D01*
X110226199Y-85571226D01*
X110181995Y-85459853D01*
X110145734Y-85365667D01*
X110119224Y-85292972D01*
X110104273Y-85246069D01*
X110101869Y-85229961D01*
X110120926Y-85209414D01*
X110162651Y-85176061D01*
X110218321Y-85136830D01*
X110222993Y-85133727D01*
X110366879Y-85018551D01*
X110482898Y-84884181D01*
X110570045Y-84734912D01*
X110627314Y-84575041D01*
X110653701Y-84408865D01*
X110648200Y-84240680D01*
X110609805Y-84074783D01*
X110537510Y-83915470D01*
X110516241Y-83880615D01*
X110405611Y-83739865D01*
X110274917Y-83626842D01*
X110128679Y-83542131D01*
X109971423Y-83486322D01*
X109807672Y-83460002D01*
X109641948Y-83463758D01*
X109478777Y-83498178D01*
X109322680Y-83563851D01*
X109178182Y-83661363D01*
X109133484Y-83700941D01*
X109019727Y-83824831D01*
X108936833Y-83955252D01*
X108879971Y-84101443D01*
X108848302Y-84246216D01*
X108840484Y-84408988D01*
X108866553Y-84572568D01*
X108923860Y-84731426D01*
X109009759Y-84880034D01*
X109121601Y-85012863D01*
X109256738Y-85124384D01*
X109274498Y-85136139D01*
X109330765Y-85174636D01*
X109373538Y-85207991D01*
X109393987Y-85229288D01*
X109394284Y-85229961D01*
X109389894Y-85252999D01*
X109372491Y-85305285D01*
X109343883Y-85382518D01*
X109305880Y-85480396D01*
X109260289Y-85594619D01*
X109208918Y-85720886D01*
X109153577Y-85854895D01*
X109096073Y-85992346D01*
X109038216Y-86128936D01*
X108981813Y-86260365D01*
X108928673Y-86382333D01*
X108880605Y-86490537D01*
X108839416Y-86580677D01*
X108806916Y-86648451D01*
X108784912Y-86689558D01*
X108776051Y-86700354D01*
X108748975Y-86691947D01*
X108698312Y-86669400D01*
X108632798Y-86636741D01*
X108596774Y-86617648D01*
X108443783Y-86534928D01*
X108261527Y-86658203D01*
X108168490Y-86721356D01*
X108066630Y-86790855D01*
X107971177Y-86856293D01*
X107923365Y-86889245D01*
X107856120Y-86934401D01*
X107799179Y-86970185D01*
X107759969Y-86992066D01*
X107747234Y-86996691D01*
X107728698Y-86984213D01*
X107687674Y-86949380D01*
X107628140Y-86895806D01*
X107554073Y-86827111D01*
X107469450Y-86746909D01*
X107415930Y-86695414D01*
X107322296Y-86603414D01*
X107241374Y-86521127D01*
X107176438Y-86452073D01*
X107130757Y-86399772D01*
X107107604Y-86367744D01*
X107105383Y-86361244D01*
X107115691Y-86336522D01*
X107144176Y-86286533D01*
X107187678Y-86216340D01*
X107243038Y-86131003D01*
X107307095Y-86035584D01*
X107325312Y-86008982D01*
X107391688Y-85912295D01*
X107451237Y-85825245D01*
X107500631Y-85752723D01*
X107536540Y-85699621D01*
X107555634Y-85670831D01*
X107557479Y-85667854D01*
X107554720Y-85644910D01*
X107540077Y-85594464D01*
X107516102Y-85523169D01*
X107485349Y-85437675D01*
X107450371Y-85344635D01*
X107413722Y-85250702D01*
X107377954Y-85162527D01*
X107345621Y-85086762D01*
X107319277Y-85030059D01*
X107301473Y-84999071D01*
X107300208Y-84997585D01*
X107289321Y-84988729D01*
X107270933Y-84979971D01*
X107241009Y-84970405D01*
X107195512Y-84959124D01*
X107130406Y-84945221D01*
X107041654Y-84927791D01*
X106925222Y-84905926D01*
X106777073Y-84878719D01*
X106744997Y-84872869D01*
X106649929Y-84854502D01*
X106567050Y-84836533D01*
X106503685Y-84820697D01*
X106467157Y-84808728D01*
X106462259Y-84805938D01*
X106454188Y-84781200D01*
X106447628Y-84725918D01*
X106442582Y-84646517D01*
X106439056Y-84549424D01*
X106437054Y-84441066D01*
X106436579Y-84327868D01*
X106437638Y-84216256D01*
X106440233Y-84112657D01*
X106444369Y-84023496D01*
X106450052Y-83955200D01*
X106457284Y-83914194D01*
X106461644Y-83905802D01*
X106485917Y-83897336D01*
X106541189Y-83883563D01*
X106621953Y-83865678D01*
X106722703Y-83844876D01*
X106837932Y-83822351D01*
X106900713Y-83810546D01*
X107019828Y-83788279D01*
X107126050Y-83768107D01*
X107214188Y-83751043D01*
X107279049Y-83738097D01*
X107315441Y-83730283D01*
X107321431Y-83728550D01*
X107331554Y-83709018D01*
X107352953Y-83661971D01*
X107382776Y-83594131D01*
X107418170Y-83512219D01*
X107456283Y-83422956D01*
X107494262Y-83333063D01*
X107529255Y-83249263D01*
X107558409Y-83178275D01*
X107578872Y-83126822D01*
X107587792Y-83101625D01*
X107587958Y-83100524D01*
X107577846Y-83080647D01*
X107549498Y-83034905D01*
X107505892Y-82967845D01*
X107450009Y-82884012D01*
X107384828Y-82787954D01*
X107346936Y-82732778D01*
X107277890Y-82631609D01*
X107216565Y-82539758D01*
X107165952Y-82461872D01*
X107129044Y-82402597D01*
X107108833Y-82366579D01*
X107105914Y-82358505D01*
X107118462Y-82339712D01*
X107153152Y-82299585D01*
X107205552Y-82242621D01*
X107271231Y-82173313D01*
X107345759Y-82096159D01*
X107424702Y-82015653D01*
X107503632Y-81936291D01*
X107578115Y-81862568D01*
X107643721Y-81798980D01*
X107696019Y-81750022D01*
X107730576Y-81720189D01*
X107742137Y-81713070D01*
X107760961Y-81723081D01*
X107805984Y-81751206D01*
X107872828Y-81794582D01*
X107957116Y-81850346D01*
X108054471Y-81915634D01*
X108127908Y-81965374D01*
X108498948Y-82217679D01*
X109117520Y-81962683D01*
X109201340Y-81518059D01*
X109285161Y-81073435D01*
X110210609Y-81073435D01*
X110294429Y-81518059D01*
%TD*%
D12*
%TO.C,J2*%
X102600000Y-82385000D03*
D13*
X102600000Y-84925000D03*
X102600000Y-87465000D03*
X102600000Y-90005000D03*
%TD*%
D12*
%TO.C,J3*%
X91760000Y-84000000D03*
D13*
X94300000Y-84000000D03*
X96840000Y-84000000D03*
%TD*%
D14*
%TO.C,REF\u002A\u002A*%
X90650000Y-90000000D03*
X87833274Y-88833274D03*
X90166726Y-91166726D03*
X87350000Y-90000000D03*
D15*
X89000000Y-90000000D03*
D14*
X89000000Y-88350000D03*
X87833274Y-91166726D03*
X89000000Y-91650000D03*
X90166726Y-88833274D03*
%TD*%
D16*
%TO.C,C1*%
X99100000Y-72470937D03*
X100700000Y-71800000D03*
D17*
X102300000Y-68629063D03*
X100700000Y-69300000D03*
%TD*%
D14*
%TO.C,REF\u002A\u002A*%
X113350000Y-70000000D03*
X116166726Y-68833274D03*
X115000000Y-71650000D03*
X115000000Y-68350000D03*
X113833274Y-71166726D03*
D15*
X115000000Y-70000000D03*
D14*
X113833274Y-68833274D03*
X116650000Y-70000000D03*
X116166726Y-71166726D03*
%TD*%
D18*
%TO.C,U2*%
X114690000Y-77000000D03*
X112150000Y-77000000D03*
X109610000Y-77000000D03*
X107070000Y-77000000D03*
X104530000Y-77000000D03*
X101990000Y-77000000D03*
X99450000Y-77000000D03*
X96910000Y-77000000D03*
X114690000Y-64300000D03*
X112150000Y-64300000D03*
X109610000Y-64300000D03*
X107070000Y-64300000D03*
X104530000Y-64300000D03*
X101990000Y-64300000D03*
X99450000Y-64300000D03*
X96910000Y-64300000D03*
%TD*%
D14*
%TO.C,REF\u002A\u002A*%
X116166726Y-88833274D03*
D15*
X115000000Y-90000000D03*
D14*
X116166726Y-91166726D03*
X113833274Y-91166726D03*
X116650000Y-90000000D03*
X113833274Y-88833274D03*
X113350000Y-90000000D03*
X115000000Y-91650000D03*
X115000000Y-88350000D03*
%TD*%
D19*
%TO.C,J1*%
X84300000Y-86100000D03*
D20*
X78000000Y-86100000D03*
D21*
X81400000Y-90900000D03*
%TD*%
M02*
