M48
; DRILL file {KiCad (6.0.9)} date Thu Sep 21 20:23:19 2023
; FORMAT={-:-/ absolute / inch / decimal}
; #@! TF.CreationDate,2023-09-21T20:23:19+02:00
; #@! TF.GenerationSoftware,Kicad,Pcbnew,(6.0.9)
; #@! TF.FileFunction,Plated,1,2,PTH
FMAT,2
INCH
; #@! TA.AperFunction,Plated,PTH,ViaDrill
T1C0.0157
; #@! TA.AperFunction,Plated,PTH,ComponentDrill
T2C0.0157
; #@! TA.AperFunction,Plated,PTH,ComponentDrill
T3C0.0315
; #@! TA.AperFunction,Plated,PTH,ComponentDrill
T4C0.0394
; #@! TA.AperFunction,Plated,PTH,ComponentDrill
T5C0.0433
; #@! TA.AperFunction,Plated,PTH,ComponentDrill
T6C0.0866
%
G90
G05
T1
X3.0551Y-2.5827
X3.2283Y-2.6063
X3.563Y-2.9409
T2
X3.439Y-3.5433
X3.458Y-3.4974
X3.458Y-3.5892
X3.5039Y-3.4783
X3.5039Y-3.6083
X3.5499Y-3.4974
X3.5499Y-3.5892
X3.5689Y-3.5433
X4.4626Y-2.7559
X4.4626Y-3.5433
X4.4816Y-2.71
X4.4816Y-2.8018
X4.4816Y-3.4974
X4.4816Y-3.5892
X4.5276Y-2.6909
X4.5276Y-2.8209
X4.5276Y-3.4783
X4.5276Y-3.6083
X4.5735Y-2.71
X4.5735Y-2.8018
X4.5735Y-3.4974
X4.5735Y-3.5892
X4.5925Y-2.7559
X4.5925Y-3.5433
T3
X3.8154Y-2.5315
X3.8154Y-3.0315
X3.9016Y-2.8532
X3.9154Y-2.5315
X3.9154Y-3.0315
X3.9646Y-2.7283
X3.9646Y-2.8268
X4.0154Y-2.5315
X4.0154Y-3.0315
X4.0276Y-2.7019
X4.1154Y-2.5315
X4.1154Y-3.0315
X4.2154Y-2.5315
X4.2154Y-3.0315
X4.3154Y-2.5315
X4.3154Y-3.0315
X4.4154Y-2.5315
X4.4154Y-3.0315
X4.5154Y-2.5315
X4.5154Y-3.0315
T5
X3.6126Y-3.3071
X3.7126Y-3.3071
X3.8126Y-3.3071
X4.0394Y-3.2435
X4.0394Y-3.3435
X4.0394Y-3.4435
X4.0394Y-3.5435
T6
X3.5039Y-3.5433
X4.5276Y-2.7559
X4.5276Y-3.5433
T4
G00X3.0709Y-3.3465
M15
G01X3.0709Y-3.4331
M16
G05
G00X3.248Y-3.5787
M15
G01X3.1614Y-3.5787
M16
G05
G00X3.3189Y-3.3386
M15
G01X3.3189Y-3.4409
M16
G05
T0
M30
